<?xml version="1.0" encoding="utf-8"?>
<!-- Generator: Adobe Illustrator 22.0.0, SVG Export Plug-In . SVG Version: 6.00 Build 0)  -->
<svg version="1.1" id="Capa_1" xmlns="http://www.w3.org/2000/svg" xmlns:xlink="http://www.w3.org/1999/xlink" x="0px" y="0px"
	 viewBox="0 0 480.18 480.18" enable-background="new 0 0 480.18 480.18" xml:space="preserve">
<g>
	<g>
		<path fill="#FFFFFF" d="M200.18,32.11c-92.78,0-168,75.22-168,168s75.22,168,168,168s168-75.22,168-168
			C368.08,107.36,292.92,32.21,200.18,32.11z M200.18,48.11c49.42,0.04,95.72,24.12,124.13,64.56l-20,20
			c-4.87-2.95-10.44-4.52-16.13-4.56c-17.67,0-32,14.33-32,32c0.03,5.7,1.6,11.28,4.54,16.15l-52.38,52.38
			c-9.92-6.05-22.38-6.05-32.3,0l-36.38-36.38c2.94-4.88,4.51-10.46,4.54-16.15c0.02-17.64-14.26-31.95-31.9-31.98
			c-14.59-0.02-27.33,9.85-30.97,23.98H51.64C66.79,98.16,128.61,48.21,200.18,48.11z M304.18,160.11c0,8.84-7.16,16-16,16
			s-16-7.16-16-16s7.16-16,16-16S304.18,151.27,304.18,160.11z M208.18,256.11c0,8.84-7.16,16-16,16s-16-7.16-16-16s7.16-16,16-16
			S208.18,247.27,208.18,256.11z M128.18,176.11c0,8.84-7.16,16-16,16s-16-7.16-16-16s7.16-16,16-16S128.18,167.27,128.18,176.11z
			 M274.04,333.01c-22.59,12.54-48.01,19.12-73.85,19.09c-83.89,0.06-151.94-67.9-152-151.79c0-5.41,0.28-10.82,0.86-16.21h32.28
			c3.64,14.09,16.32,23.95,30.86,24c5.69-0.03,11.28-1.6,16.15-4.54l36.38,36.38c-2.94,4.88-4.51,10.46-4.54,16.15
			c0,17.67,14.33,32,32,32s32-14.33,32-32c-0.03-5.7-1.6-11.28-4.54-16.15l52.38-52.38c4.88,2.94,10.46,4.51,16.15,4.54
			c17.67,0,32-14.33,32-32c-0.03-5.7-1.6-11.28-4.54-16.15l17.44-17.43C373.8,199.85,347.36,292.3,274.04,333.01z"/>
	</g>
</g>
<g>
	<g>
		<path fill="#FFFFFF" d="M400.18,80.11c14.55-0.06,27.23-9.91,30.86-24h49.14v-16h-49.14c-3.64-14.09-16.32-23.94-30.86-24
			c-17.67,0-32,14.33-32,32c0.03,5.69,1.6,11.28,4.54,16.15l-14.06,14.06C291.41-9.31,165.85-25.82,78.23,41.44
			S-25.9,234.25,41.36,321.87c63.48,82.71,179.85,102.77,267.37,46.1l24.14,24.14l11.31,11.31l64.4,64.4
			c16.38,16.38,42.93,16.38,59.31,0c16.38-16.38,16.38-42.93,0-59.31l-64.4-64.4l-11.31-11.31l-24.14-24.14
			c42.86-66.02,42.86-151.07,0-217.09l16-16C388.91,78.5,394.49,80.07,400.18,80.11z M400.18,32.11c8.84,0,16,7.16,16,16
			s-7.16,16-16,16s-16-7.16-16-16S391.35,32.11,400.18,32.11z M456.58,419.82c10.25,10.02,10.43,26.44,0.42,36.69
			c-10.02,10.25-26.44,10.43-36.69,0.42c-0.14-0.14-0.28-0.28-0.42-0.42l-64.4-64.4l36.69-36.69L456.58,419.82z M380.87,344.11
			l-36.69,36.69l-22.14-22.14c1.13-0.86,2.18-1.82,3.3-2.7s2.4-1.95,3.59-2.95c1.75-1.47,3.48-2.96,5.18-4.49
			c0.87-0.8,1.7-1.6,2.56-2.4c3.28-3.07,6.46-6.25,9.53-9.53c0.8-0.86,1.6-1.69,2.4-2.56c1.53-1.7,3.02-3.42,4.49-5.18
			c1-1.18,1.99-2.38,2.95-3.59c0.88-1.1,1.83-2.16,2.7-3.29L380.87,344.11z M349.85,306.95c-2.52,3.52-5.12,6.97-7.86,10.29
			c-0.8,0.97-1.66,1.9-2.48,2.86c-2.45,2.85-4.98,5.61-7.58,8.29c-1.14,1.17-2.29,2.33-3.46,3.46c-2.67,2.61-5.43,5.14-8.29,7.58
			c-0.95,0.8-1.89,1.67-2.86,2.48c-3.32,2.74-6.77,5.34-10.29,7.86c-82.82,59.17-197.91,39.99-257.08-42.82S9.95,109.03,92.77,49.87
			S290.68,9.87,349.85,92.69C395.63,156.77,395.63,242.86,349.85,306.95z"/>
	</g>
</g>
</svg>
