<?xml version="1.0" encoding="iso-8859-1"?>
<!-- Generator: Adobe Illustrator 19.0.0, SVG Export Plug-In . SVG Version: 6.00 Build 0)  -->
<svg version="1.1" id="Capa_1" xmlns="http://www.w3.org/2000/svg" xmlns:xlink="http://www.w3.org/1999/xlink" x="0px" y="0px"
	 viewBox="0 0 480 480" style="enable-background:new 0 0 480 480;" xml:space="preserve">
<g>
	<g>
		<path d="M412,16h-24V8c0-4.418-3.582-8-8-8s-8,3.582-8,8v8h-16V8c0-4.418-3.582-8-8-8s-8,3.582-8,8v8h-16V8c0-4.418-3.582-8-8-8
			s-8,3.582-8,8v8h-16V8c0-4.418-3.582-8-8-8s-8,3.582-8,8v8H164V8c0-4.418-3.582-8-8-8s-8,3.582-8,8v8h-16V8c0-4.418-3.582-8-8-8
			s-8,3.582-8,8v8h-16V8c0-4.418-3.582-8-8-8s-8,3.582-8,8v8H68V8c0-4.418-3.582-8-8-8s-8,3.582-8,8v8H28c-4.418,0-8,3.582-8,8v376
			c0,4.418,3.582,8,8,8h232.4c4.418,0.011,8.009-3.562,8.02-7.98c0-0.193-0.006-0.387-0.02-0.58l-0.064-0.928
			c-0.176-2.16-0.336-4.32-0.336-6.512c0.026-7.918,0.96-15.807,2.784-23.512c1.78-7.67,4.44-15.109,7.928-22.168
			c0.344-0.704,0.656-1.416,1.016-2.112c1.064-2.032,2.216-4,3.408-5.96c0.376-0.616,0.744-1.248,1.136-1.856
			c1.296-2.032,2.661-4.013,4.096-5.944c0.296-0.408,0.6-0.8,0.904-1.216c1.6-2.091,3.261-4.117,4.984-6.08l0.24-0.264
			c11.428-12.754,25.792-22.532,41.848-28.488l1.408-0.52c2.16-0.76,4.352-1.432,6.568-2.056c1-0.28,2.016-0.536,3.032-0.8
			c1.872-0.464,3.752-0.896,5.656-1.256c1.6-0.296,3.264-0.52,4.904-0.744c1.448-0.208,2.88-0.44,4.344-0.576
			c3.2-0.304,6.456-0.496,9.744-0.496c2.168,0,4.304,0.168,6.4,0.312l1,0.072c0.064,0,0.136,0,0.2,0
			c10.1,0.759,20.036,2.982,29.496,6.6c4.117,1.604,8.754-0.433,10.358-4.55c0.36-0.924,0.545-1.906,0.546-2.898V24
			C420,19.582,416.418,16,412,16z M268.432,331.704c-0.28,0.456-0.576,0.888-0.832,1.344c-1.152,2.024-2.192,4.112-3.2,6.208
			c-0.568,1.152-1.144,2.296-1.672,3.472c-0.872,1.928-1.688,3.896-2.456,5.88c-0.08,0.2-0.168,0.384-0.248,0.584V312h22.808
			C277.379,318.065,272.555,324.667,268.432,331.704z M308,290.672c-2.752,1.744-5.408,3.6-8,5.552V296h-40v-48h48V290.672z
			 M308,232h-48v-48h48V232z M308,168h-48v-48h48V168z M372,184v48h-48v-48H372z M324,168v-48h48v48H324z M372.016,272
			c-3.744,0-7.44,0.216-11.104,0.56c-1.6,0.144-3.096,0.392-4.648,0.592c-1.96,0.264-3.912,0.536-5.84,0.896
			c-1.928,0.36-4.048,0.8-6.048,1.288c-1.224,0.296-2.448,0.608-3.664,0.944c-2.4,0.656-4.8,1.368-7.2,2.168
			c-0.304,0.112-0.6,0.232-0.904,0.336c-2.912,1.016-5.792,2.08-8.592,3.304V248h48V272z M404,276.416
			c-5.251-1.472-10.597-2.582-16-3.32V112c0-4.418-3.582-8-8-8H60c-4.418,0-8,3.582-8,8v256c0,4.418,3.582,8,8,8h193.192
			c-0.754,5.301-1.152,10.646-1.192,16H36V88h368V276.416z M196,296v-48h48v48H196z M244,312v48h-48v-48H244z M196,232v-48h48v48
			H196z M196,168v-48h48v48H196z M132,296v-48h48v48H132z M180,312v48h-48v-48H180z M132,232v-48h48v48H132z M132,168v-48h48v48H132
			z M68,296v-48h48v48H68z M116,312v48H68v-48H116z M68,232v-48h48v48H68z M68,168v-48h48v48H68z M404,72H36V32h16v8
			c0,4.418,3.582,8,8,8s8-3.582,8-8v-8h16v8c0,4.418,3.582,8,8,8s8-3.582,8-8v-8h16v8c0,4.418,3.582,8,8,8s8-3.582,8-8v-8h16v8
			c0,4.418,3.582,8,8,8s8-3.582,8-8v-8h112v8c0,4.418,3.582,8,8,8s8-3.582,8-8v-8h16v8c0,4.418,3.582,8,8,8s8-3.582,8-8v-8h16v8
			c0,4.418,3.582,8,8,8s8-3.582,8-8v-8h16v8c0,4.418,3.582,8,8,8s8-3.582,8-8v-8h16V72z"/>
	</g>
</g>
<g>
	<g>
		<path d="M372,304c-48.601,0-88,39.399-88,88c0,48.601,39.399,88,88,88c48.601,0,88-39.399,88-88
			C459.943,343.423,420.577,304.057,372,304z M372,464c-39.764,0-72-32.236-72-72c0-39.765,32.236-72,72-72
			c39.765,0,72,32.235,72,72C443.956,431.746,411.746,463.956,372,464z"/>
	</g>
</g>
<g>
	<g>
		<path d="M417.46,346.344c-3.1-2.995-8.016-2.995-11.116,0L372,380.688l-18.344-18.344c-3.178-3.07-8.242-2.982-11.312,0.196
			c-2.995,3.1-2.995,8.016,0,11.116l24,24c3.124,3.123,8.188,3.123,11.312,0l40-40C420.726,354.478,420.638,349.414,417.46,346.344z
			"/>
	</g>
</g>
<g>
</g>
<g>
</g>
<g>
</g>
<g>
</g>
<g>
</g>
<g>
</g>
<g>
</g>
<g>
</g>
<g>
</g>
<g>
</g>
<g>
</g>
<g>
</g>
<g>
</g>
<g>
</g>
<g>
</g>
</svg>
