<?xml version="1.0" encoding="iso-8859-1"?>
<!-- Generator: Adobe Illustrator 19.0.0, SVG Export Plug-In . SVG Version: 6.00 Build 0)  -->
<svg xmlns="http://www.w3.org/2000/svg" xmlns:xlink="http://www.w3.org/1999/xlink" version="1.1" id="Capa_1" x="0px" y="0px" viewBox="0 0 480 480" style="enable-background:new 0 0 480 480;" xml:space="preserve" width="512px" height="512px">
<g>
	<g>
		<path d="M64,312c-17.673,0-32,14.327-32,32c0,17.673,14.327,32,32,32s32-14.327,32-32C96,326.327,81.673,312,64,312z M64,360    c-8.837,0-16-7.163-16-16s7.163-16,16-16s16,7.163,16,16S72.837,360,64,360z" fill="#FFFFFF"/>
	</g>
</g>
<g>
	<g>
		<path d="M240,312c-17.673,0-32,14.327-32,32c0,17.673,14.327,32,32,32c17.673,0,32-14.327,32-32C272,326.327,257.673,312,240,312z     M240,360c-8.837,0-16-7.163-16-16s7.163-16,16-16s16,7.163,16,16S248.837,360,240,360z" fill="#FFFFFF"/>
	</g>
</g>
<g>
	<g>
		<path d="M416,312c-17.673,0-32,14.327-32,32c0,17.673,14.327,32,32,32c17.673,0,32-14.327,32-32C448,326.327,433.673,312,416,312z     M416,360c-8.837,0-16-7.163-16-16s7.163-16,16-16s16,7.163,16,16S424.837,360,416,360z" fill="#FFFFFF"/>
	</g>
</g>
<g>
	<g>
		<path d="M64,384c-35.346,0-64,28.654-64,64v24c0,4.418,3.582,8,8,8h112c4.418,0,8-3.582,8-8v-24C128,412.654,99.346,384,64,384z     M112,464H16v-16c0-26.51,21.49-48,48-48s48,21.49,48,48V464z" fill="#FFFFFF"/>
	</g>
</g>
<g>
	<g>
		<path d="M240,384c-35.346,0-64,28.654-64,64v24c0,4.418,3.582,8,8,8h112c4.418,0,8-3.582,8-8v-24C304,412.654,275.346,384,240,384    z M288,464h-96v-16c0-26.51,21.49-48,48-48c26.51,0,48,21.49,48,48V464z" fill="#FFFFFF"/>
	</g>
</g>
<g>
	<g>
		<path d="M416,384c-35.33,0.04-63.96,28.67-64,64v24c0,4.418,3.582,8,8,8h112c4.418,0,8-3.582,8-8v-24    C479.96,412.67,451.33,384.04,416,384z M464,464h-96v-16c0-26.51,21.49-48,48-48c26.51,0,48,21.49,48,48V464z" fill="#FFFFFF"/>
	</g>
</g>
<g>
	<g>
		<path d="M240,128c-17.673,0-32,14.327-32,32s14.327,32,32,32c17.673,0,32-14.327,32-32S257.673,128,240,128z M240,176    c-8.837,0-16-7.163-16-16s7.163-16,16-16s16,7.163,16,16S248.837,176,240,176z" fill="#FFFFFF"/>
	</g>
</g>
<g>
	<g>
		<path d="M240,200c-35.346,0-64,28.654-64,64v24c0,4.418,3.582,8,8,8h112c4.418,0,8-3.582,8-8v-24C304,228.654,275.346,200,240,200    z M288,280h-96v-16c0-26.51,21.49-48,48-48c26.51,0,48,21.49,48,48V280z" fill="#FFFFFF"/>
	</g>
</g>
<g>
	<g>
		<path d="M408,0H72c-4.418,0-8,3.582-8,8v96c0,4.418,3.582,8,8,8h336c4.418,0,8-3.582,8-8V8C416,3.582,412.418,0,408,0z M400,96H80    V16h320V96z" fill="#FFFFFF"/>
	</g>
</g>
<g>
	<g>
		<path d="M287.502,36.908c-1.683-4.085-6.359-6.033-10.444-4.35c-0.07,0.029-0.14,0.059-0.21,0.09l-53.52,22.936L161.936,40.24    c-1.695-0.428-3.483-0.285-5.088,0.408l-56,24c-4.085,1.683-6.033,6.359-4.35,10.444c1.683,4.085,6.359,6.033,10.444,4.35    c0.07-0.029,0.14-0.059,0.209-0.09l53.52-22.936l61.392,15.344c1.695,0.419,3.481,0.275,5.088-0.408l56-24    C287.237,45.669,289.185,40.993,287.502,36.908z" fill="#FFFFFF"/>
	</g>
</g>
<g>
	<g>
		<rect x="304" y="32" width="48" height="16" fill="#FFFFFF"/>
	</g>
</g>
<g>
	<g>
		<rect x="368" y="32" width="16" height="16" fill="#FFFFFF"/>
	</g>
</g>
<g>
	<g>
		<rect x="304" y="64" width="16" height="16" fill="#FFFFFF"/>
	</g>
</g>
<g>
	<g>
		<rect x="336" y="64" width="48" height="16" fill="#FFFFFF"/>
	</g>
</g>
<g>
</g>
<g>
</g>
<g>
</g>
<g>
</g>
<g>
</g>
<g>
</g>
<g>
</g>
<g>
</g>
<g>
</g>
<g>
</g>
<g>
</g>
<g>
</g>
<g>
</g>
<g>
</g>
<g>
</g>
</svg>
