<?xml version="1.0" encoding="iso-8859-1"?>
<!-- Generator: Adobe Illustrator 19.0.0, SVG Export Plug-In . SVG Version: 6.00 Build 0)  -->
<svg version="1.1" id="Capa_1" xmlns="http://www.w3.org/2000/svg" xmlns:xlink="http://www.w3.org/1999/xlink" x="0px" y="0px"
	 viewBox="0 0 480 480" style="enable-background:new 0 0 480 480;" xml:space="preserve">
<g>
	<g>
		<path d="M432,48.001H224c-26.499,0.026-47.974,21.501-48,48v96H48c-26.499,0.026-47.974,21.501-48,48v112
			c0.029,23.413,16.92,43.401,40,47.336v24.664c0.001,4.418,3.583,7.999,8.002,7.998c2.121,0,4.154-0.843,5.654-2.342l29.656-29.656
			H256c26.499-0.026,47.974-21.501,48-48v-96h92.688l29.656,29.656c3.125,3.124,8.19,3.123,11.314-0.002
			c1.499-1.5,2.342-3.534,2.342-5.654v-24.664c23.08-3.935,39.971-23.923,40-47.336v-112C479.974,69.502,458.499,48.027,432,48.001z
			 M288,352.001c0,17.673-14.327,32-32,32H80c-2.122,0-4.156,0.844-5.656,2.344L56,404.689v-12.688c0-4.418-3.582-8-8-8
			c-17.673,0-32-14.327-32-32v-112c0-17.673,14.327-32,32-32h208c17.673,0,32,14.327,32,32V352.001z M464,208.001
			c0,17.673-14.327,32-32,32c-4.418,0-8,3.582-8,8v12.688l-18.344-18.344c-1.5-1.5-3.534-2.344-5.656-2.344h-96
			c-0.026-26.499-21.501-47.974-48-48h-64v-96c0-17.673,14.327-32,32-32h208c17.673,0,32,14.327,32,32V208.001z"/>
	</g>
</g>
<g>
	<g>
		<path d="M88,272.001c-13.255,0-24,10.745-24,24s10.745,24,24,24s24-10.745,24-24S101.255,272.001,88,272.001z M88,304.001
			c-4.418,0-8-3.582-8-8s3.582-8,8-8s8,3.582,8,8S92.418,304.001,88,304.001z"/>
	</g>
</g>
<g>
	<g>
		<path d="M152,272.001c-13.255,0-24,10.745-24,24s10.745,24,24,24s24-10.745,24-24S165.255,272.001,152,272.001z M152,304.001
			c-4.418,0-8-3.582-8-8s3.582-8,8-8s8,3.582,8,8S156.418,304.001,152,304.001z"/>
	</g>
</g>
<g>
	<g>
		<path d="M216,272.001c-13.255,0-24,10.745-24,24s10.745,24,24,24s24-10.745,24-24S229.255,272.001,216,272.001z M216,304.001
			c-4.418,0-8-3.582-8-8s3.582-8,8-8s8,3.582,8,8S220.418,304.001,216,304.001z"/>
	</g>
</g>
<g>
	<g>
		<rect x="224" y="96.001" width="144" height="16"/>
	</g>
</g>
<g>
	<g>
		<rect x="384" y="96.001" width="48" height="16"/>
	</g>
</g>
<g>
	<g>
		<rect x="224" y="128.001" width="48" height="16"/>
	</g>
</g>
<g>
	<g>
		<rect x="288" y="128.001" width="96" height="16"/>
	</g>
</g>
<g>
	<g>
		<rect x="224" y="160.001" width="208" height="16"/>
	</g>
</g>
<g>
	<g>
		<rect x="304" y="192.001" width="64" height="16"/>
	</g>
</g>
<g>
	<g>
		<rect x="384" y="192.001" width="48" height="16"/>
	</g>
</g>
<g>
	<g>
		<rect x="400" y="128.001" width="32" height="16"/>
	</g>
</g>
<g>
</g>
<g>
</g>
<g>
</g>
<g>
</g>
<g>
</g>
<g>
</g>
<g>
</g>
<g>
</g>
<g>
</g>
<g>
</g>
<g>
</g>
<g>
</g>
<g>
</g>
<g>
</g>
<g>
</g>
</svg>
