<?xml version="1.0" encoding="iso-8859-1"?>
<!-- Generator: Adobe Illustrator 19.0.0, SVG Export Plug-In . SVG Version: 6.00 Build 0)  -->
<svg version="1.1" id="Capa_1" xmlns="http://www.w3.org/2000/svg" xmlns:xlink="http://www.w3.org/1999/xlink" x="0px" y="0px"
	 viewBox="0 0 457.487 457.487" style="enable-background:new 0 0 457.487 457.487;" xml:space="preserve">
<g>
	<g>
		<path d="M146.742,47.881C90.832,73.241,49.787,123.025,35.55,182.744c-0.733,3.692,1.552,7.313,5.2,8.24
			c3.799,0.901,7.611-1.443,8.52-5.24C73.017,86.619,172.625,25.513,271.75,49.26c54.353,13.021,99.878,49.971,123.801,100.484
			l14.2-3C364.423,46.815,246.67,2.553,146.742,47.881z"/>
	</g>
</g>
<g>
	<g>
		<path d="M452.557,153.087c-1.101-0.351-2.27-0.428-3.407-0.223l-0.16-0.16l-40,8.36l-40,8.36
			c-3.843,0.724-6.371,4.426-5.647,8.268c0.236,1.252,0.805,2.416,1.647,3.372l27.2,30.32l26.88,30
			c2.402,3.086,6.85,3.64,9.936,1.238c1.116-0.869,1.947-2.052,2.384-3.398l13.08-38.52l12.68-38.72
			C458.339,158.258,456.283,154.275,452.557,153.087z M430.99,196.304l-8.88,27.04l-19-21.2l-19-21.2l28-5.84l28-5.84
			L430.99,196.304z"/>
	</g>
</g>
<g>
	<g>
		<path d="M228.742,93.904C154.294,93.906,93.944,154.26,93.946,228.708c0.001,35.751,14.204,70.037,39.484,95.316
			c25.256,25.317,59.56,39.525,95.32,39.48c74.448-0.002,134.798-60.356,134.796-134.804S303.19,93.901,228.742,93.904z
			 M294.99,127.864c21.6,14.204,38.084,34.95,47.04,59.2c-7.573-6.091-15.596-11.6-24-16.48
			C301.27,160.184,288.75,152.384,294.99,127.864z M132.95,302.024c-16.138-21.03-24.859-46.812-24.8-73.32
			c-0.043-31.544,12.312-61.841,34.4-84.36c6,15.52,17.28,25.2,27.56,34.04c9.4,8,17.84,15.32,18.04,25.28
			c0,7.12-4.36,12.64-9.36,18.76c-7.162,7.713-12.349,17.046-15.12,27.2c-1.04,6.615-1.255,13.333-0.64,20
			c0.4,10.48,0.88,22.64-2.36,30.16C157.83,306.384,150.39,309.184,132.95,302.024z M228.75,349.304
			c-4.759-0.001-9.514-0.282-14.24-0.84c-3.402-8.078-0.662-17.434,6.56-22.4c5.28-4,20.48,0.68,36.48,5.44
			c7.64,2.28,15.44,4.6,22.96,6.16C264.341,345.357,246.656,349.334,228.75,349.304z M301.35,325.184
			c-9.96,1.64-25.08-2.88-39.6-7.2c-19.48-5.8-37.96-11.32-48.92-3.28c-10.301,6.716-15.604,18.928-13.48,31.04
			c-17.95-4.488-34.622-13.057-48.72-25.04c10.218,0.568,19.587-5.672,23-15.32c4.48-10.4,4-24.32,3.48-36.28
			c-0.464-5.329-0.37-10.691,0.28-16c2.372-8.068,6.606-15.467,12.36-21.6c6.68-8.2,12.72-15.6,12.48-28
			c-0.28-16.36-11-25.56-22.96-36c-10.04-8.6-21.16-18.16-25.2-33.68c21.278-16.755,47.598-25.82,74.68-25.72
			c18.588-0.005,36.924,4.308,53.56,12.6c-12,37.24,5.16,47.76,28.44,62.08c12.24,7.56,26.52,16.32,37.8,32
			c0.534,4.634,0.801,9.295,0.8,13.96C349.382,266.644,331.607,302.358,301.35,325.184z"/>
	</g>
</g>
<g>
	<g>
		<path d="M417.096,265.987c-3.759-1.078-7.679,1.096-8.757,4.855c-0.059,0.205-0.108,0.413-0.148,0.622
			c-23.747,99.125-123.354,160.231-222.479,136.484c-54.353-13.021-99.878-49.971-123.801-100.484l-10.64,2.56l-3.52,0.72
			c45.328,99.928,163.081,144.191,263.009,98.863c55.91-25.361,96.955-75.144,111.191-134.863
			C423.028,270.985,420.854,267.064,417.096,265.987z"/>
	</g>
</g>
<g>
	<g>
		<path d="M94.157,279.715c-0.236-1.252-0.805-2.417-1.647-3.372l-27.76-30.52l-26.88-30c-2.402-3.086-6.85-3.64-9.936-1.238
			c-1.116,0.869-1.947,2.053-2.384,3.398l-12.52,38.72l-12.68,38.72c-0.385,1.175-0.454,2.43-0.2,3.64
			c0.718,3.844,4.416,6.378,8.26,5.659c0.033-0.006,0.067-0.013,0.1-0.019l40-8.36l40-8.36
			C92.353,287.26,94.881,283.558,94.157,279.715z M45.35,282.304l-28,5.84l9.12-27.04l8.88-27.04l19,21.2l19,21.2L45.35,282.304z"/>
	</g>
</g>
<g>
</g>
<g>
</g>
<g>
</g>
<g>
</g>
<g>
</g>
<g>
</g>
<g>
</g>
<g>
</g>
<g>
</g>
<g>
</g>
<g>
</g>
<g>
</g>
<g>
</g>
<g>
</g>
<g>
</g>
</svg>
