<?xml version="1.0" encoding="iso-8859-1"?>
<!-- Generator: Adobe Illustrator 19.0.0, SVG Export Plug-In . SVG Version: 6.00 Build 0)  -->
<svg version="1.1" id="Capa_1" xmlns="http://www.w3.org/2000/svg" xmlns:xlink="http://www.w3.org/1999/xlink" x="0px" y="0px"
	 viewBox="0 0 462.949 462.949" style="enable-background:new 0 0 462.949 462.949;" xml:space="preserve">
<g>
	<g>
		<path d="M409.202,177.237c-0.263-3.491-3.037-6.265-6.528-6.528l-46.96,0.52c-3.833,0.021-6.953,3.088-7.04,6.92
			c0.022,3.895,3.185,7.04,7.08,7.04l46.92-0.36C406.573,184.535,409.496,181.136,409.202,177.237z"/>
	</g>
</g>
<g>
	<g>
		<path d="M384.285,88.292c-1.959-2.324-5.183-3.139-8.011-2.024l-40.6,23.56c-3.638,1.434-5.424,5.546-3.989,9.184
			s5.546,5.424,9.184,3.989c0.715-0.282,1.378-0.678,1.966-1.173v0.2l40.6-23.76C386.424,95.748,386.805,91.282,384.285,88.292z"/>
	</g>
</g>
<g>
	<g>
		<path d="M175.434,66.349l-23.52-40.44c-2.52-2.99-6.987-3.371-9.976-0.851c-2.324,1.959-3.139,5.183-2.024,8.011l23.52,40.44
			c2.52,2.99,6.987,3.371,9.976,0.851C175.735,72.4,176.549,69.176,175.434,66.349z"/>
	</g>
</g>
<g>
	<g>
		<path d="M320.534,23.328c-3.402-1.933-7.727-0.742-9.66,2.66l-23.12,40.84c-1.926,3.392-0.745,7.702,2.64,9.64
			c3.402,1.919,7.716,0.72,9.64-2.68l23.16-40.8C325.127,29.586,323.936,25.261,320.534,23.328z"/>
	</g>
</g>
<g>
	<g>
		<path d="M127.434,109.149l-40.76-23.12c-3.402-1.933-7.727-0.742-9.66,2.66c-1.933,3.402-0.742,7.727,2.66,9.66v-0.04l40.8,23.16
			c3.474,1.794,7.745,0.433,9.54-3.041C131.714,115.136,130.589,111.09,127.434,109.149z"/>
	</g>
</g>
<g>
	<g>
		<path d="M108.258,170.349c-0.354-0.027-0.71-0.027-1.064,0l-46.92,0.36c-3.899,0.294-6.822,3.693-6.528,7.592
			c0.263,3.491,3.037,6.265,6.528,6.528l46.92-0.36c3.899,0.294,7.298-2.629,7.592-6.528
			C115.08,174.041,112.157,170.642,108.258,170.349z"/>
	</g>
</g>
<g>
	<g>
		<path d="M283.034,118.749c-6.038-7.318-14.993-11.606-24.48-11.72c-9.487,0.114-18.442,4.402-24.48,11.72
			c-0.915,1.072-1.77,2.193-2.56,3.36c-0.79-1.167-1.645-2.288-2.56-3.36c-6.038-7.318-14.993-11.606-24.48-11.72
			c-9.487,0.114-18.442,4.402-24.48,11.72c-6.3,7.502-9.718,17.004-9.64,26.8l-0.08,124.64h14.2v-124.64
			c-0.079-6.422,2.133-12.662,6.24-17.6c3.366-4.144,8.382-6.601,13.72-6.72c5.338,0.119,10.354,2.576,13.72,6.72
			c4.107,4.938,6.319,11.178,6.24,17.6v124.64h14.2v-124.64c-0.08-6.422,2.133-12.662,6.24-17.6c3.366-4.144,8.382-6.601,13.72-6.72
			c5.338,0.119,10.354,2.576,13.72,6.72c4.107,4.938,6.319,11.178,6.24,17.6v124.64h14.2v-124.64
			C292.781,135.748,289.349,126.244,283.034,118.749z"/>
	</g>
</g>
<g>
	<g>
		<path d="M238.514,6.549c-0.294-3.899-3.693-6.822-7.592-6.528c-3.491,0.263-6.265,3.037-6.528,6.528l0.36,46.92
			c0,3.91,3.17,7.08,7.08,7.08c3.895-0.022,7.04-3.185,7.04-7.08L238.514,6.549z"/>
	</g>
</g>
<g>
	<g>
		<path d="M312.994,288.108c-2.348-2.37-5.543-3.709-8.88-3.72h-145.36c-6.981,0-12.64,5.659-12.64,12.64v4
			c0.01,22.386,8.934,43.847,24.8,59.64c2.979,2.979,6.174,5.733,9.56,8.24v21.92c0.059,21.15,13.126,40.083,32.88,47.64v6.48
			c0.015,4.778,1.929,9.354,5.32,12.72c3.382,3.386,7.974,5.286,12.76,5.28c4.545-0.01,8.917-1.739,12.24-4.84l0.52-0.48
			c3.386-3.382,5.286-7.974,5.28-12.76v-6.44c19.754-7.557,32.821-26.49,32.88-47.64v-21.88c3.385-2.507,6.581-5.262,9.56-8.24
			c15.866-15.793,24.79-37.254,24.8-59.64v-4C316.709,293.679,315.371,290.469,312.994,288.108z M234.314,447.628l-0.24,0.24
			c-0.698,0.579-1.573,0.904-2.48,0.92c-2.209,0-4-1.791-4-4v-3.28h2.84h2h2.84l0.16,3.4
			C235.42,445.924,235.02,446.897,234.314,447.628z M268.234,390.789c0.011,20.28-16.42,36.729-36.7,36.74
			c-3.069,0.002-6.126-0.381-9.1-1.14h-0.2c-6.345-1.666-12.13-4.993-16.76-9.64h0.08c-6.909-6.873-10.796-16.215-10.8-25.96v-13.4
			c10.375,4.91,21.648,7.633,33.12,8h7.24c11.472-0.367,22.745-3.09,33.12-8V390.789z M302.554,301.029
			c-0.112,37.343-29.315,68.124-66.6,70.2h-9.04c-12.59-0.649-24.769-4.699-35.24-11.72l-0.24-0.28
			c-3.731-2.531-7.214-5.41-10.4-8.6c-13.199-13.133-20.626-30.98-20.64-49.6v-2.52h142.16V301.029z"/>
	</g>
</g>
<g>
</g>
<g>
</g>
<g>
</g>
<g>
</g>
<g>
</g>
<g>
</g>
<g>
</g>
<g>
</g>
<g>
</g>
<g>
</g>
<g>
</g>
<g>
</g>
<g>
</g>
<g>
</g>
<g>
</g>
</svg>
