<?xml version="1.0" encoding="utf-8"?>
<!-- Generator: Adobe Illustrator 22.0.0, SVG Export Plug-In . SVG Version: 6.00 Build 0)  -->
<svg version="1.1" id="Layer_1" xmlns="http://www.w3.org/2000/svg" xmlns:xlink="http://www.w3.org/1999/xlink" x="0px" y="0px"
	 viewBox="0 0 512 512" style="enable-background:new 0 0 512 512;" xml:space="preserve">
<style type="text/css">
	.st0{fill:#FFFFFF;}
</style>
<g>
	<g>
		<g>
			<path class="st0" d="M360.5,444c-4.6-1.2-9.2,1.6-10.3,6.2l-8.5,34.1c-1.2,4.6,1.6,9.2,6.2,10.4c0.7,0.2,1.4,0.3,2.1,0.3
				c3.8,0,7.3-2.6,8.3-6.5l8.5-34.1C367.8,449.8,365,445.1,360.5,444z"/>
			<path class="st0" d="M256,273.1c1.1,0,2.2-0.2,3.3-0.6l93.9-38.8c4.4-1.8,6.4-6.8,4.6-11.1c-1.8-4.4-6.8-6.4-11.2-4.6L256,255.3
				L17.1,156.4v-2.8c0-4.7-3.8-8.5-8.5-8.5S0,148.9,0,153.6v8.5c0,3.5,2.1,6.6,5.3,7.9l247.5,102.4
				C253.8,272.9,254.9,273.1,256,273.1z"/>
			<path class="st0" d="M357.5,360.5c-2.1-4.2-7.2-6-11.4-3.9c-16.2,8-43.3,17.3-81.6,18.6v-76.6c0-4.7-3.8-8.5-8.5-8.5
				s-8.5,3.8-8.5,8.5v76.5c-106-3.4-140.2-67.6-145.1-78.3v-58c0-4.7-3.8-8.5-8.5-8.5s-8.5,3.8-8.5,8.5v59.7c0,1.1,0.2,2.2,0.6,3.2
				c1.5,3.7,37.8,90.7,170.1,90.7c46.2,0,78.6-11.2,97.6-20.6C357.9,369.8,359.6,364.7,357.5,360.5z"/>
			<path class="st0" d="M384,452.3c-4.7,0-8.5,3.8-8.5,8.5v25.6c0,4.7,3.8,8.5,8.5,8.5s8.5-3.8,8.5-8.5v-25.6
				C392.5,456.1,388.7,452.3,384,452.3z"/>
			<path class="st0" d="M503.5,145.1c-4.7,0-8.5,3.8-8.5,8.5v2.8l-102.4,42.1v-15.4l114.2-47.3c3.2-1.3,5.3-4.4,5.3-7.9
				s-2.1-6.6-5.3-7.9L259.3,17.7c-2.1-0.9-4.4-0.9-6.5,0L5.3,120.1C2.1,121.4,0,124.5,0,128s2.1,6.6,5.3,7.9l247.5,102.4
				c1,0.4,2.1,0.6,3.3,0.6s2.2-0.2,3.3-0.6l89.5-37c4.4-1.8,6.4-6.8,4.6-11.1c-1.8-4.4-6.8-6.4-11.1-4.6L256,221.2L30.8,128
				L256,34.8L481.2,128l-98,40.5l-93.8-35c0.5-1.8,0.8-3.6,0.8-5.5c0-14.4-15-25.6-34.1-25.6s-34.1,11.2-34.1,25.6
				s15,25.6,34.1,25.6c8.5,0,16.2-2.3,22.1-6.1l97.4,36.4v27.3v0v182.9c-9.9,3.5-17.1,12.9-17.1,24c0,14.1,11.5,25.6,25.6,25.6
				s25.6-11.5,25.6-25.6c0-11.1-7.2-20.5-17.1-24v-48.4c24.5-18.5,33.3-43.1,33.7-44.2c0.3-0.9,0.5-1.8,0.5-2.8v-59.7
				c0-4.7-3.8-8.5-8.5-8.5s-8.5,3.8-8.5,8.5v58.2c-1.5,3.6-6.6,14.8-17.1,25.8V217l114.2-47c3.2-1.3,5.3-4.4,5.3-7.9v-8.5
				C512,148.9,508.2,145.1,503.5,145.1z M256,136.5c-10.4,0-17.1-5.1-17.1-8.5c0-3.5,6.6-8.5,17.1-8.5c10.4,0,17.1,5.1,17.1,8.5
				C273.1,131.5,266.4,136.5,256,136.5z M384,426.7c-4.7,0-8.5-3.8-8.5-8.5s3.8-8.5,8.5-8.5s8.5,3.8,8.5,8.5
				C392.5,422.8,388.7,426.7,384,426.7z"/>
			<path class="st0" d="M417.9,450.2c-1.1-4.6-5.8-7.4-10.3-6.2c-4.6,1.1-7.4,5.8-6.2,10.4l8.5,34.1c1,3.9,4.4,6.5,8.3,6.5
				c0.7,0,1.4-0.1,2.1-0.3c4.6-1.1,7.4-5.8,6.2-10.4L417.9,450.2z"/>
		</g>
	</g>
</g>
</svg>
