<?xml version="1.0" encoding="iso-8859-1"?>
<!-- Generator: Adobe Illustrator 19.0.0, SVG Export Plug-In . SVG Version: 6.00 Build 0)  -->
<svg version="1.1" id="Capa_1" xmlns="http://www.w3.org/2000/svg" xmlns:xlink="http://www.w3.org/1999/xlink" x="0px" y="0px"
	 viewBox="0 0 480 480" style="enable-background:new 0 0 480 480;" xml:space="preserve">
<g>
	<g>
		<path d="M376,272h-8v-24c0-4.418-3.582-8-8-8h-80c-4.418,0-8,3.582-8,8v24h-8c-2.704,0-5.352,0.2-8,0.408V136
			c0-13.255-10.745-24-24-24h-56V48h8c4.418,0,8-3.582,8-8V8c0-4.418-3.582-8-8-8H72c-4.418,0-8,3.582-8,8v32c0,4.418,3.582,8,8,8h8
			v64H24c-13.255,0-24,10.745-24,24v288c0,13.255,10.745,24,24,24h8v8c0,13.255,10.745,24,24,24s24-10.745,24-24v-8h80v8
			c0,13.255,10.745,24,24,24h272c13.255,0,24-10.745,24-24v-80C479.934,318.59,433.41,272.066,376,272z M288,256h64v16h-64V256z
			 M80,16h96v16H80V16z M160,48v64H96V48H160z M64,456c0,4.418-3.582,8-8,8s-8-3.582-8-8v-8h16V456z M160.4,368H48v16h112v48H80H24
			c-4.418,0-8-3.582-8-8V136c0-4.418,3.582-8,8-8h208c4.418,0,8,3.582,8,8v138.904c-19.398,4.616-37.058,14.717-50.872,29.096H48v16
			h128.504C167.234,334.415,161.699,350.911,160.4,368z M400,464H240v-56c0.035-30.913,25.087-55.965,56-56h48
			c30.913,0.035,55.965,25.087,56,56V464z M464,456c0,4.418-3.582,8-8,8h-40v-56c-0.044-39.746-32.254-71.956-72-72h-48
			c-39.746,0.044-71.956,32.254-72,72v56h-40c-4.418,0-8-3.582-8-8v-80c0.053-48.579,39.421-87.947,88-88h112
			c48.579,0.053,87.947,39.421,88,88V456z"/>
	</g>
</g>
<g>
	<g>
		<rect x="272" y="304" width="96" height="16"/>
	</g>
</g>
<g>
	<g>
		<rect x="48" y="176" width="160" height="16"/>
	</g>
</g>
<g>
	<g>
		<rect x="48" y="240" width="160" height="16"/>
	</g>
</g>
<g>
</g>
<g>
</g>
<g>
</g>
<g>
</g>
<g>
</g>
<g>
</g>
<g>
</g>
<g>
</g>
<g>
</g>
<g>
</g>
<g>
</g>
<g>
</g>
<g>
</g>
<g>
</g>
<g>
</g>
</svg>
