<?xml version="1.0" encoding="utf-8"?>
<!-- Generator: Adobe Illustrator 22.0.0, SVG Export Plug-In . SVG Version: 6.00 Build 0)  -->
<svg version="1.1" id="Layer_1" xmlns="http://www.w3.org/2000/svg" xmlns:xlink="http://www.w3.org/1999/xlink" x="0px" y="0px"
	 viewBox="0 0 512 512" enable-background="new 0 0 512 512" xml:space="preserve">
<g>
	<g>
		<g>
			<path fill="#FFFFFF" d="M187.73,315.73c0,4.71,3.82,8.53,8.53,8.53h34.13c4.71,0,8.53-3.82,8.53-8.53v-51.2
				c0-4.71-3.82-8.53-8.53-8.53h-34.13c-4.71,0-8.53,3.82-8.53,8.53L187.73,315.73L187.73,315.73z M204.8,273.07h17.07v34.13H204.8
				V273.07z"/>
			<path fill="#FFFFFF" d="M196.27,221.87h34.13c4.71,0,8.53-3.82,8.53-8.53v-51.2c0-4.71-3.82-8.53-8.53-8.53h-34.13
				c-4.71,0-8.53,3.82-8.53,8.53v51.2C187.73,218.04,191.56,221.87,196.27,221.87z M204.8,170.67h17.07v34.13H204.8V170.67z"/>
			<path fill="#FFFFFF" d="M132.4,160.91L256,86.75l123.61,74.16c1.37,0.83,2.89,1.22,4.39,1.22c2.9,0,5.73-1.48,7.32-4.14
				c2.43-4.04,1.12-9.28-2.92-11.71L264.53,71.97v-54.9h42.67v17.07h-25.6c-4.71,0-8.53,3.82-8.53,8.53s3.82,8.53,8.53,8.53h34.13
				c4.71,0,8.53-3.82,8.53-8.53V8.53c0-4.71-3.82-8.53-8.53-8.53H256c-4.71,0-8.53,3.82-8.53,8.53v63.44l-123.86,74.32
				c-4.04,2.42-5.35,7.66-2.92,11.71C123.1,162.03,128.36,163.35,132.4,160.91z"/>
			<path fill="#FFFFFF" d="M93.87,324.27c4.71,0,8.53-3.82,8.53-8.53v-51.2c0-4.71-3.82-8.53-8.53-8.53H59.73
				c-4.71,0-8.53,3.82-8.53,8.53v17.07c0,4.71,3.82,8.53,8.53,8.53s8.53-3.82,8.53-8.53v-8.53h17.07v42.67
				C85.33,320.44,89.16,324.27,93.87,324.27z"/>
			<path fill="#FFFFFF" d="M153.6,435.2V187.73c0-4.71-3.82-8.53-8.53-8.53s-8.53,3.82-8.53,8.53V435.2c0,4.71,3.82,8.53,8.53,8.53
				C149.78,443.73,153.6,439.91,153.6,435.2z"/>
			<path fill="#FFFFFF" d="M110.93,477.87h290.13c4.71,0,8.53-3.82,8.53-8.53s-3.82-8.53-8.53-8.53h-76.8v-85.33h8.53
				c4.71,0,8.53-3.82,8.53-8.53s-3.82-8.53-8.53-8.53H179.2c-4.71,0-8.53,3.82-8.53,8.53s3.82,8.53,8.53,8.53h8.53v85.33h-76.8
				c-4.71,0-8.53,3.82-8.53,8.53S106.22,477.87,110.93,477.87z M264.53,426.67c4.71,0,8.53-3.82,8.53-8.53s-3.82-8.53-8.53-8.53
				v-34.13h42.67v85.33h-42.67L264.53,426.67L264.53,426.67z M204.8,375.47h42.67v34.13c-4.71,0-8.53,3.82-8.53,8.53
				s3.82,8.53,8.53,8.53v34.13H204.8V375.47z"/>
			<path fill="#FFFFFF" d="M452.27,366.93h-34.13c-4.71,0-8.53,3.82-8.53,8.53v51.2c0,4.71,3.82,8.53,8.53,8.53h34.13
				c4.71,0,8.53-3.82,8.53-8.53v-51.2C460.8,370.76,456.98,366.93,452.27,366.93z M443.73,418.13h-17.07V384h17.07V418.13z"/>
			<path fill="#FFFFFF" d="M452.27,264.53h-34.13c-4.71,0-8.53,3.82-8.53,8.53v51.2c0,4.71,3.82,8.53,8.53,8.53h34.13
				c4.71,0,8.53-3.82,8.53-8.53v-51.2C460.8,268.36,456.98,264.53,452.27,264.53z M443.73,315.73h-17.07V281.6h17.07V315.73z"/>
			<path fill="#FFFFFF" d="M435.2,494.93H76.8c-4.71,0-8.53,3.82-8.53,8.53S72.09,512,76.8,512h358.4c4.71,0,8.53-3.82,8.53-8.53
				S439.91,494.93,435.2,494.93z"/>
			<path fill="#FFFFFF" d="M503.47,187.73c-4.71,0-8.53,3.82-8.53,8.53v8.53h-93.87c-4.71,0-8.53,3.82-8.53,8.53
				s3.82,8.53,8.53,8.53h93.87v281.6c0,4.71,3.82,8.53,8.53,8.53s8.53-3.82,8.53-8.53v-307.2
				C512,191.56,508.18,187.73,503.47,187.73z"/>
			<path fill="#FFFFFF" d="M273.07,315.73c0,4.71,3.82,8.53,8.53,8.53h34.13c4.71,0,8.53-3.82,8.53-8.53v-51.2
				c0-4.71-3.82-8.53-8.53-8.53H281.6c-4.71,0-8.53,3.82-8.53,8.53L273.07,315.73L273.07,315.73z M290.13,273.07h17.07v34.13h-17.07
				L290.13,273.07L290.13,273.07z"/>
			<path fill="#FFFFFF" d="M85.33,418.13c0-1.11-0.49-110.93-42.67-110.93C0.49,307.2,0,417.02,0,418.13
				c0,20.61,14.69,37.84,34.13,41.8v43.53c0,4.71,3.82,8.53,8.53,8.53s8.53-3.82,8.53-8.53v-43.53
				C70.65,455.97,85.33,438.74,85.33,418.13z M42.67,443.73c-14.11,0-25.6-11.49-25.6-25.6c0-42.51,11.42-93.87,25.6-93.87
				s25.6,51.35,25.6,93.87C68.27,432.25,56.78,443.73,42.67,443.73z"/>
			<path fill="#FFFFFF" d="M375.47,435.2v-256c0-4.71-3.82-8.53-8.53-8.53s-8.53,3.82-8.53,8.53v256c0,4.71,3.82,8.53,8.53,8.53
				S375.47,439.91,375.47,435.2z"/>
			<path fill="#FFFFFF" d="M281.6,221.87h34.13c4.71,0,8.53-3.82,8.53-8.53v-51.2c0-4.71-3.82-8.53-8.53-8.53H281.6
				c-4.71,0-8.53,3.82-8.53,8.53v51.2C273.07,218.04,276.89,221.87,281.6,221.87z M290.13,170.67h17.07v34.13h-17.07L290.13,170.67
				L290.13,170.67z"/>
			<path fill="#FFFFFF" d="M8.53,298.67c4.71,0,8.53-3.82,8.53-8.53v-68.27h93.87c4.71,0,8.53-3.82,8.53-8.53s-3.82-8.53-8.53-8.53
				H17.07v-8.53c0-4.71-3.82-8.53-8.53-8.53S0,191.56,0,196.27v93.87C0,294.84,3.82,298.67,8.53,298.67z"/>
		</g>
	</g>
</g>
</svg>
