<?xml version="1.0" encoding="utf-8"?>
<!-- Generator: Adobe Illustrator 22.0.0, SVG Export Plug-In . SVG Version: 6.00 Build 0)  -->
<svg version="1.1" id="Logo" xmlns="http://www.w3.org/2000/svg" xmlns:xlink="http://www.w3.org/1999/xlink" x="0px" y="0px"
	 viewBox="0 0 207.2 144.5" style="enable-background:new 0 0 207.2 144.5;" xml:space="preserve">
<style type="text/css">
	.st0{fill:#FFFFFF;}
</style>
<g id="SIU">
	<path class="st0" d="M17.4,143.9c-4.8,0.1-9.5-0.4-14.2-1.4c-0.8-0.1-1.5-0.8-1.5-1.6V135c0-0.8,0.7-1.5,1.5-1.5h0.2
		c3.2,0.4,11.2,0.8,14.2,0.8c7.1,0,9.3-2.6,9.3-7.2c0-3.1-1.5-4.7-6.8-7.9l-10.6-6.3C2,108.4,0,103.8,0,98.2
		c0-8.8,5.1-15.2,20.1-15.2c5.2,0,10.3,0.5,15.4,1.4c0.8,0.1,1.4,0.7,1.5,1.5v5.9c0,0.8-0.5,1.4-1.3,1.4c0,0,0,0-0.1,0h-0.2
		c-5.3-0.5-10.6-0.8-15.8-0.8c-5.9,0-8.4,2.1-8.4,5.7c0,2.7,1.4,4.3,6.6,7.2l9.6,5.4c8.8,4.9,11.2,10,11.2,16.4
		C38.5,135.2,33.5,143.9,17.4,143.9z"/>
	<path class="st0" d="M57.6,143.2h-8c-0.9,0-1.6-0.7-1.6-1.6V85.1c0-0.9,0.7-1.5,1.5-1.5c0,0,0,0,0.1,0h8c0.8,0,1.6,0.6,1.6,1.5
		c0,0,0,0,0,0.1v56.5C59.2,142.5,58.5,143.2,57.6,143.2C57.6,143.2,57.6,143.2,57.6,143.2z"/>
	<path class="st0" d="M111.6,141c0.2,1.2-0.7,2.3-1.9,2.5c-0.1,0-0.1,0-0.2,0c-4.9,0.6-9.9,1-14.9,1c-14.7,0-23.6-7.2-25-20.7
		c-0.1-1.3-0.3-11.9-0.3-11.9V85.1c0-0.9,0.7-1.5,1.5-1.5c0,0,0,0,0,0h8c0.8,0,1.6,0.6,1.6,1.5c0,0,0,0,0,0.1v34.8
		c0,12,6.1,15.2,14.1,15.2c3,0,4.1-0.2,5.8-0.2l0.1-13.7v-36c0-0.9,0.7-1.5,1.5-1.5c0,0,0,0,0.1,0h7.9c0.8,0,1.6,0.6,1.6,1.5
		c0,0,0,0,0,0.1L111.6,141z"/>
</g>
<g id="Symbol">
	<path class="st0" d="M126.1,24.9c-3.2,0-5.8,2.6-5.8,5.8c-0.1,3.2,2.4,5.9,5.6,6.1c3.2,0.1,5.9-2.4,6.1-5.6c0-0.2,0-0.3,0-0.5
		C131.9,27.6,129.3,25,126.1,24.9z"/>
	<path class="st0" d="M111.4,26.3c3.2,0,5.8-2.6,5.8-5.8v0c0-3.2-2.6-5.8-5.8-5.8c-3.2,0-5.8,2.6-5.8,5.8c0,0,0,0,0,0
		C105.6,23.7,108.2,26.3,111.4,26.3z"/>
	<path class="st0" d="M95.9,15.4c3.2,0,5.8-2.6,5.8-5.8c0-3.2-2.6-5.8-5.8-5.8c-3.2,0-5.8,2.6-5.8,5.8c0,0,0,0,0,0
		C90.1,12.7,92.7,15.3,95.9,15.4z"/>
	<path class="st0" d="M111.7,34.6c-3.2,0-5.8,2.6-5.8,5.8c0,3.2,2.6,5.8,5.8,5.8c3.2,0,5.8-2.6,5.8-5.8
		C117.5,37.3,114.9,34.7,111.7,34.6z"/>
	<path class="st0" d="M96.6,46c-3.2,0-5.8,2.6-5.8,5.8c0,3.2,2.6,5.8,5.8,5.9c3.2,0,5.8-2.6,5.9-5.8S99.8,46,96.6,46
		C96.6,46,96.6,46,96.6,46z"/>
	<path class="st0" d="M201.4,21.2c-3.2,0-5.8,2.6-5.8,5.8c0,3.2,2.6,5.8,5.8,5.8s5.8-2.6,5.8-5.8C207.2,23.9,204.6,21.3,201.4,21.2z
		"/>
	<path class="st0" d="M186.7,22.6c3.2,0,5.8-2.6,5.8-5.8c0.1-3.2-2.4-5.9-5.6-6.1c-3.2-0.1-5.9,2.4-6.1,5.6c0,0.2,0,0.3,0,0.5
		C180.8,20,183.5,22.6,186.7,22.6z"/>
	<path class="st0" d="M171.2,11.7c3.2,0,5.8-2.6,5.8-5.8c0-3.2-2.6-5.8-5.8-5.8s-5.8,2.6-5.8,5.8C165.3,9,168,11.7,171.2,11.7
		C171.2,11.7,171.2,11.7,171.2,11.7z"/>
	<path class="st0" d="M187,31c-3.2,0-5.8,2.6-5.8,5.8c0.1,3.2,2.9,5.7,6.1,5.6c3-0.1,5.5-2.6,5.6-5.6C192.8,33.6,190.2,31,187,31z"
		/>
	<path class="st0" d="M171.9,42.3c-3.2,0-5.8,2.6-5.9,5.8c0,3.2,2.6,5.8,5.8,5.8s5.8-2.6,5.8-5.8C177.6,44.9,175.1,42.3,171.9,42.3z
		"/>
	<path class="st0" d="M168.2,67.6c-3.2,0-5.8,2.6-5.8,5.8c0,3.2,2.6,5.8,5.8,5.8s5.8-2.6,5.8-5.8C174,70.2,171.4,67.6,168.2,67.6z"
		/>
	<path class="st0" d="M153.5,68.9c3.2,0,5.8-2.6,5.8-5.8c0-3.2-2.6-5.8-5.8-5.8s-5.8,2.6-5.8,5.8l0,0
		C147.6,66.3,150.3,68.9,153.5,68.9z"/>
	<path class="st0" d="M138,58c3.2,0,5.8-2.6,5.8-5.8c0.1-3.2-2.4-5.9-5.6-6.1c-3.2-0.1-5.9,2.4-6.1,5.6c0,0.2,0,0.3,0,0.5
		C132.2,55.4,134.8,58,138,58z"/>
	<path class="st0" d="M153.8,77.3c-3.2,0.1-5.7,2.6-5.8,5.8c0,3.2,2.6,5.8,5.8,5.8s5.8-2.6,5.8-5.8C159.6,79.9,157,77.3,153.8,77.3z
		"/>
	<path class="st0" d="M138.7,88.6c-3.2,0-5.8,2.6-5.8,5.8c0,3.2,2.6,5.8,5.8,5.8s5.8-2.6,5.8-5.8C144.4,91.2,141.9,88.6,138.7,88.6z
		"/>
</g>
</svg>
