<svg id="SvgjsSvg1032" width="360" height="275" xmlns="http://www.w3.org/2000/svg" version="1.1" xmlns:xlink="http://www.w3.org/1999/xlink" xmlns:svgjs="http://svgjs.com/svgjs"><defs id="SvgjsDefs1033"><svg width="94px" height="94px" xmlns="http://www.w3.org/2000/svg" xmlns:xlink="http://www.w3.org/1999/xlink" version="1.1" x="0px" y="0px" viewBox="0 0 100 100" enable-background="new 0 0 100 100" id="a1493141643639"><path d="M49.999,4.645C24.991,4.645,4.646,24.991,4.646,50c0,25.008,20.346,45.356,45.354,45.356  c25.009,0,45.355-20.348,45.355-45.356C95.354,24.991,75.008,4.645,49.999,4.645z M49.999,8.583  c22.196,0,40.365,17.551,41.369,39.503L79.581,36.3l-6.342,6.342L50.701,18.313l-22.314,24.02l-6.135-6.134L8.587,49.864  C8.661,27.089,27.208,8.583,49.999,8.583z M70.452,45.428L50.967,64.914L31.173,45.12l19.524-21.016L70.452,45.428z M8.91,55.11  l13.342-13.342l25.93,25.931L29.764,86.117C18.548,79.809,10.558,68.43,8.91,55.11z M49.999,91.416  c-5.87,0-11.454-1.234-16.519-3.445l46.101-46.102l11.674,11.674C89.449,74.727,71.642,91.416,49.999,91.416z"></path></svg><!--?xml version="1.0"?-->
<svg width="779.62808510639px" height="222.97872340426px" id="t1493141643639"><path fill="#222222" d="M25.38085106383,9.3446808510636c2.2021276595745,0,3.7148936170213,1.4170212765958,4.3468085106384,2.7957446808511l-1.5702127659575,0.90000000000001c-0.67021276595745-1.1297872340426-1.531914893617-1.8191489361702-2.7765957446809-1.8191489361702s-2.1255319148936,0.72765957446809-2.1255319148936,1.7234042553192c0,0.93829787234044,0.5936170212766,1.5127659574468,1.8765957446809,1.9914893617022l0.93829787234044,0.34468085106383c2.6617021276596,0.97659574468086,4.0212765957447,2.1255319148936,4.0212765957447,4.136170212766c0,2.4702127659575-2.3553191489362,3.8489361702128-4.6340425531915,3.8489361702128c-2.336170212766,0-4.2127659574469-1.3978723404255-4.7872340425532-3.2936170212766l1.6468085106383-0.84255319148937c0.47872340425532,1.2255319148936,1.5127659574468,2.2212765957447,3.1404255319149,2.2212765957447c1.3404255319149,0,2.4510638297873-0.70851063829788,2.4510638297873-1.9148936170213c0-1.2829787234043-0.86170212765958-1.8-2.3936170212766-2.3744680851064l-0.91914893617022-0.34468085106383c-2.0106382978724-0.74680851063831-3.4276595744681-1.7617021276596-3.4276595744681-3.8489361702128c0-2.0297872340426,1.8382978723404-3.5234042553192,4.2127659574469-3.5234042553192z M43.422978723405,9.5744680851066l2.1063829787234,0l0,8.540425531915c0,3.2744680851064-2.2404255319149,5.1510638297873-4.9978723404256,5.1510638297873s-4.9978723404256-1.8765957446809-4.9978723404256-5.1510638297873l0-8.540425531915l2.1063829787234,0l0,8.540425531915c0,2.2787234042553,1.3978723404255,3.1595744680851,2.8914893617022,3.1595744680851s2.8914893617022-0.8808510638298,2.8914893617022-3.1595744680851l0-8.540425531915z M55.682127659575,9.3446808510636c2.2021276595745,0,3.7148936170213,1.4170212765958,4.3468085106384,2.7957446808511l-1.5702127659575,0.90000000000001c-0.67021276595745-1.1297872340426-1.531914893617-1.8191489361702-2.7765957446809-1.8191489361702s-2.1255319148936,0.72765957446809-2.1255319148936,1.7234042553192c0,0.93829787234044,0.5936170212766,1.5127659574468,1.8765957446809,1.9914893617022l0.93829787234044,0.34468085106383c2.6617021276596,0.97659574468086,4.0212765957447,2.1255319148936,4.0212765957447,4.136170212766c0,2.4702127659575-2.3553191489362,3.8489361702128-4.6340425531915,3.8489361702128c-2.336170212766,0-4.2127659574469-1.3978723404255-4.7872340425532-3.2936170212766l1.6468085106383-0.84255319148937c0.47872340425532,1.2255319148936,1.5127659574468,2.2212765957447,3.1404255319149,2.2212765957447c1.3404255319149,0,2.4510638297873-0.70851063829788,2.4510638297873-1.9148936170213c0-1.2829787234043-0.86170212765958-1.8-2.3936170212766-2.3744680851064l-0.91914893617022-0.34468085106383c-2.0106382978724-0.74680851063831-3.4276595744681-1.7617021276596-3.4276595744681-3.8489361702128c0-2.0297872340426,1.8382978723404-3.5234042553192,4.2127659574469-3.5234042553192z M74.68170212766,9.5744680851066l0,1.9531914893617l-3.5617021276596,0l0,11.451063829787l-2.1063829787234,0l0-11.451063829787l-3.5617021276596,0l0-1.9531914893617l9.2297872340427,0z M91.000425531916,22.978723404256l-1.2255319148936-2.8340425531915l-6.8553191489363,0l-1.2255319148936,2.8340425531915l-2.2404255319149,0l5.9744680851065-13.404255319149l1.8382978723404,0l5.9744680851065,13.404255319149l-2.2404255319149,0z M83.685531914894,18.402127659575l5.3234042553192,0l-2.6617021276596-6.1659574468086z M100.50212765957,9.5744680851066l0,13.404255319149l-2.1063829787234,0l0-13.404255319149l2.1063829787234,0z M115.51872340426,9.5744680851066l2.1063829787234,0l0,13.404255319149l-1.6085106382979,0l-7.4872340425533-9.5553191489363l0,9.5553191489363l-2.1063829787234,0l0-13.404255319149l1.6276595744681,0l7.4680851063831,9.5744680851065l0-9.5744680851065z M134.32680851064,22.978723404256l-1.2255319148936-2.8340425531915l-6.8553191489363,0l-1.2255319148936,2.8340425531915l-2.2404255319149,0l5.9744680851065-13.404255319149l1.8382978723404,0l5.9744680851065,13.404255319149l-2.2404255319149,0z M127.01191489362,18.402127659575l5.3234042553192,0l-2.6617021276596-6.1659574468086z M148.57744680851,15.587234042553c1.6085106382979,0.38297872340426,2.8531914893617,1.7617021276596,2.8531914893617,3.5234042553192c0,2.3936170212766-1.531914893617,3.868085106383-4.8638297872341,3.868085106383l-4.8446808510639,0l0-13.404255319149l4.7489361702128,0c2.7,0,4.0404255319149,1.531914893617,4.0404255319149,3.2936170212766c0,1.3404255319149-0.80425531914895,2.2787234042553-1.9340425531915,2.7191489361702z M146.29872340426,11.431914893618l-2.4702127659575,0l0,3.504255319149l2.4702127659575,0c1.3787234042553,0,2.1255319148936-0.72765957446809,2.1255319148936-1.7617021276596c0-1.0914893617021-0.74680851063831-1.7425531914894-2.1255319148936-1.7425531914894z M146.47106382979,21.121276595745c1.9723404255319,0,2.8531914893617-0.80425531914895,2.8531914893617-2.2404255319149c0-1.2255319148936-0.8808510638298-2.2212765957447-2.8531914893617-2.2212765957447l-2.6425531914894,0l0,4.4617021276596l2.6425531914894,0z M158.97914893617,21.025531914894l5.6872340425533,0l0,1.9531914893617l-7.7936170212767,0l0-13.404255319149l2.1063829787234,0l0,11.451063829787z M172.31063829787,21.025531914894l6.0702127659575,0l0,1.9531914893617l-6.4531914893618,0l-1.7234042553192,0l0-13.404255319149l2.1063829787234,0l5.8978723404256,0l0,1.9531914893617l-5.8978723404256,0l0,3.7531914893617l4.5382978723405,0l0,1.9148936170213l-4.5382978723405,0l0,3.8297872340426z M202.22893617022,9.5744680851066l0,1.9531914893617l-3.5617021276596,0l0,11.451063829787l-2.1063829787234,0l0-11.451063829787l-3.5617021276596,0l0-1.9531914893617l9.2297872340427,0z M214.37319148936,9.3829787234046c3.6,0,6.8936170212767,2.8340425531915,6.8936170212767,6.8936170212767s-3.2936170212766,6.8936170212767-6.8936170212767,6.8936170212767s-6.8936170212767-2.8340425531915-6.8936170212767-6.8936170212767s3.2936170212766-6.8936170212767,6.8936170212767-6.8936170212767z M214.37319148936,21.178723404256c2.4702127659575,0,4.7106382978724-2.0297872340426,4.7106382978724-4.9021276595745s-2.2404255319149-4.9021276595745-4.7106382978724-4.9021276595745s-4.7106382978724,2.0297872340426-4.7106382978724,4.9021276595745s2.2404255319149,4.9021276595745,4.7106382978724,4.9021276595745z M234.78978723405,9.5744680851066l2.1063829787234,0l0,8.540425531915c0,3.2744680851064-2.2404255319149,5.1510638297873-4.9978723404256,5.1510638297873s-4.9978723404256-1.8765957446809-4.9978723404256-5.1510638297873l0-8.540425531915l2.1063829787234,0l0,8.540425531915c0,2.2787234042553,1.3978723404255,3.1595744680851,2.8914893617022,3.1595744680851s2.8914893617022-0.8808510638298,2.8914893617022-3.1595744680851l0-8.540425531915z M252.96595744681,22.978723404256l-2.2595744680851,0l-3.1595744680851-4.672340425532l-0.22978723404256,0l-2.3936170212766,0l0,4.672340425532l-2.1063829787234,0l0-13.404255319149l4.5000000000001,0c3.0063829787234,0,4.8446808510639,1.8382978723404,4.8446808510639,4.4234042553192c0,1.8765957446809-0.97659574468086,3.3127659574468-2.6617021276596,3.9446808510639z M244.92340425532,11.527659574469l0,4.940425531915l2.2978723404256,0c1.704255319149,0,2.8340425531915-0.80425531914895,2.8340425531915-2.4702127659575s-1.1297872340426-2.4702127659575-2.8340425531915-2.4702127659575l-2.2978723404256,0z M260.41872340426,9.5744680851066l0,13.404255319149l-2.1063829787234,0l0-13.404255319149l2.1063829787234,0z M270.57148936171,9.3446808510636c2.2021276595745,0,3.7148936170213,1.4170212765958,4.3468085106384,2.7957446808511l-1.5702127659575,0.90000000000001c-0.67021276595745-1.1297872340426-1.531914893617-1.8191489361702-2.7765957446809-1.8191489361702s-2.1255319148936,0.72765957446809-2.1255319148936,1.7234042553192c0,0.93829787234044,0.5936170212766,1.5127659574468,1.8765957446809,1.9914893617022l0.93829787234044,0.34468085106383c2.6617021276596,0.97659574468086,4.0212765957447,2.1255319148936,4.0212765957447,4.136170212766c0,2.4702127659575-2.3553191489362,3.8489361702128-4.6340425531915,3.8489361702128c-2.336170212766,0-4.2127659574469-1.3978723404255-4.7872340425532-3.2936170212766l1.6468085106383-0.84255319148937c0.47872340425532,1.2255319148936,1.5127659574468,2.2212765957447,3.1404255319149,2.2212765957447c1.3404255319149,0,2.4510638297873-0.70851063829788,2.4510638297873-1.9148936170213c0-1.2829787234043-0.86170212765958-1.8-2.3936170212766-2.3744680851064l-0.91914893617022-0.34468085106383c-2.0106382978724-0.74680851063831-3.4276595744681-1.7617021276596-3.4276595744681-3.8489361702128c0-2.0297872340426,1.8382978723404-3.5234042553192,4.2127659574469-3.5234042553192z M294.85617021277,9.5744680851066l0,13.404255319149l-2.1638297872341,0l0-8.6744680851065l-4.0212765957447,8.6744680851065l-1.7808510638298,0l-4.0021276595745-8.6553191489363l0,8.6553191489363l-2.1638297872341,0l0-13.404255319149l2.0872340425532,0l4.9787234042554,10.551063829787l4.9787234042554-10.551063829787l2.0872340425532,0z"></path></svg>
<!--?xml version="1.0"?-->
<svg width="285.3713125px" height="35.0396875px" id="s1493141643639"><path fill="#222222" d="M0.346640625,24.1323046875q0.020390625,0.0101953125,0.03568359375,0.020390625t0.03568359375,0.020390625q0.061171875,0.0815625,0.1121484375,0.224296875q0.061171875,0.224296875,0.0101953125,0.28546875q-0.0305859375,0.0305859375-0.1325390625,0.0305859375q-0.387421875-0.0509765625-0.4383984375-0.1733203125q-0.061171875-0.0815625-0.0101953125-0.2548828125q0.0101953125-0.061171875,0.0509765625-0.12234375q0.0713671875-0.0305859375,0.3364453125-0.0305859375z M0.36703125,20.5231640625q0.0713671875,0,0.12234375,0.061171875l0.0917578125,0.3568359375q0.020390625,0.1121484375-0.020390625,0.163125q-0.0917578125,0.0917578125-0.3364453125,0.0509765625q-0.061171875,0-0.0815625-0.0101953125q-0.1121484375-0.0101953125-0.13763671875-0.1733203125t-0.01529296875-0.265078125q0-0.101953125,0.0305859375-0.1529296875q0.0917578125-0.04078125,0.346640625-0.0305859375z  M12.5769375,18.88171875q0.2141015625,0.2141015625,0.34154296875,0.468984375l0.25998046875,0.5199609375q0.142734375,0.2956640625,0.08666015625,0.59642578125t-0.33134765625,0.58623046875q-0.2141015625,0.224296875-0.713671875,0.3568359375q-0.183515625,0.0509765625-0.39251953125,0.10705078125t-0.29056640625,0.23958984375q-0.061171875,0.1733203125,0.0305859375,0.3568359375q0.101953125,0.1937109375,0.163125,0.3160546875t0.101953125,0.183515625q0.0509765625,0.101953125,0.1325390625,0.22939453125t0.1937109375,0.29056640625q0.2344921875,0.32625,0.49447265625,0.61171875t0.52505859375,0.550546875l0.0509765625,0.0509765625q0.224296875,0.224296875,0.0101953125,0.4383984375q-0.2344921875,0.2344921875-0.44859375,0.0101953125l-0.305859375-0.305859375t-0.2446875-0.265078125q-0.2446875-0.305859375-0.4587890625-0.6423046875q-0.1529296875-0.224296875-0.31095703125-0.43330078125t-0.30076171875-0.45369140625q-0.4078125-0.7340625-1.0093359375-0.9685546875q-0.6423046875-0.2344921875-0.93796875,0.183515625q-0.0917578125,0.142734375-0.0917578125,0.3160546875l0,2.2123828125l0,0.1325390625q0,0.305859375-0.3160546875,0.3160546875q-0.3160546875-0.0101953125-0.3160546875-0.387421875q0-0.2344921875,0.01529296875-0.48427734375t0.02548828125-0.53525390625q0.0101953125-0.1937109375-0.00509765625-0.3976171875t-0.01529296875-0.3976171875t0.0101953125-0.387421875t0.0101953125-0.387421875q0.0101953125-0.4587890625-0.0305859375-0.9481640625q0-0.3364453125,0.01529296875-0.6830859375t0.00509765625-0.7034765625q-0.0101953125-0.183515625-0.0101953125-0.41291015625t0.061171875-0.41291015625q0.183515625-0.2446875,0.8666015625-0.2446875l0.3160546875,0q0.36703125,0,0.73916015625,0.0305859375t0.73916015625,0.0101953125q0.8462109375-0.04078125,1.3355859375,0.3364453125z M9.7120546875,21.08390625q0.387421875,0.0101953125,0.6830859375,0.0101953125t0.4995703125-0.020390625q0.1937109375-0.020390625,0.43330078125-0.0509765625t0.52505859375-0.0815625q0.5811328125-0.12234375,0.754453125-0.5403515625q0.0713671875-0.1529296875,0.0509765625-0.3364453125t-0.11724609375-0.3364453125t-0.2446875-0.25998046875t-0.32115234375-0.183515625t-0.3364453125-0.10705078125q-0.428203125-0.0815625-0.85130859375-0.06626953125t-0.85130859375-0.00509765625q-0.0815625,0-0.15802734375-0.00509765625t-0.15802734375-0.00509765625q-0.2141015625-0.0101953125-0.32625,0.1121484375q-0.0917578125,0.101953125-0.0713671875,0.28546875q0.0101953125,0.0509765625,0.0101953125,0.2141015625q-0.0101953125,0.1529296875-0.03568359375,0.2956640625t-0.03568359375,0.28546875q-0.061171875,0.3976171875,0.0917578125,0.591328125q0.1325390625,0.183515625,0.4587890625,0.20390625z M21.3224765625,18.5044921875q0.305859375-0.0101953125,0.305859375,0.305859375q0,0.428203125-0.00509765625,0.836015625t-0.05607421875,0.836015625q-0.0509765625,0.3976171875-0.00509765625,0.7850390625t0.04587890625,0.77484375l0,0.0713671875l-0.04078125,0.69328125q-0.020390625,0.224296875-0.0509765625,0.3976171875t-0.0509765625,0.28546875l-0.020390625,0.04078125l-0.020390625,0.0713671875l0,0.0101953125q-0.0305859375,0.12234375-0.1121484375,0.24978515625t-0.17841796875,0.2446875t-0.20900390625,0.21919921875t-0.20390625,0.183515625q-0.1733203125,0.1529296875-0.3772265625,0.2446875t-0.428203125,0.1325390625t-0.45369140625,0.05607421875t-0.44349609375,0.01529296875q-0.3772265625,0-0.7340625-0.08666015625t-0.69328125-0.29056640625q-0.020390625-0.020390625-0.020390625-0.0305859375q-0.0305859375-0.0101953125-0.0509765625-0.0305859375l-0.04078125-0.04078125q-0.0305859375-0.020390625-0.0509765625-0.03568359375t-0.04078125-0.04587890625q-0.509765625-0.5403515625-0.6525-1.34578125q-0.061171875-0.3976171875-0.0815625-0.77994140625t0-0.74935546875q0.0101953125-0.0917578125,0.020390625-0.17841796875t0.020390625-0.17841796875q0.0101953125-0.12234375,0.00509765625-0.2344921875t-0.01529296875-0.2141015625q-0.061171875-0.8054296875-0.0305859375-1.9065234375q0.0101953125-0.2141015625,0.265078125-0.305859375q0.20390625-0.061171875,0.346640625,0.04078125q0.0815625,0.0815625,0.0815625,0.183515625q0.0101953125,0.142734375,0.00509765625,0.36703125t-0.01529296875,0.5199609375q0,0.2548828125-0.020390625,0.509765625t-0.020390625,0.4995703125q0,0.305859375-0.020390625,0.59642578125t-0.020390625,0.58623046875q0,0.5709375,0.183515625,1.284609375q0.020390625,0.0917578125,0.04587890625,0.16822265625t0.04587890625,0.15802734375q0.1529296875,0.4791796875,0.468984375,0.6626953125q0.2344921875,0.142734375,0.876796875,0.183515625q0.0815625,0.0101953125,0.163125,0.02548828125t0.1733203125,0.01529296875l0.0101953125,0l0.0101953125,0q0.489375,0,0.85640625-0.1733203125t0.6219140625-0.6015234375q0.20390625-0.346640625,0.20390625-1.0603125l0-0.22939453125t0.0101953125-0.15802734375q0.101953125-0.9073828125-0.020390625-1.896328125q-0.020390625-0.1325390625,0.0305859375-0.489375q0.020390625-0.142734375,0.0305859375-0.2548828125t0.0101953125-0.1937109375q0-0.4383984375,0.061171875-0.591328125q0.0815625-0.1529296875,0.28546875-0.1529296875z M29.089265625,18.88171875q0.2141015625,0.2141015625,0.34154296875,0.468984375l0.25998046875,0.5199609375q0.142734375,0.2956640625,0.08666015625,0.59642578125t-0.33134765625,0.58623046875q-0.2141015625,0.224296875-0.713671875,0.3568359375q-0.183515625,0.0509765625-0.39251953125,0.10705078125t-0.29056640625,0.23958984375q-0.061171875,0.1733203125,0.0305859375,0.3568359375q0.101953125,0.1937109375,0.163125,0.3160546875t0.101953125,0.183515625q0.0509765625,0.101953125,0.1325390625,0.22939453125t0.1937109375,0.29056640625q0.2344921875,0.32625,0.49447265625,0.61171875t0.52505859375,0.550546875l0.0509765625,0.0509765625q0.224296875,0.224296875,0.0101953125,0.4383984375q-0.2344921875,0.2344921875-0.44859375,0.0101953125l-0.305859375-0.305859375t-0.2446875-0.265078125q-0.2446875-0.305859375-0.4587890625-0.6423046875q-0.1529296875-0.224296875-0.31095703125-0.43330078125t-0.30076171875-0.45369140625q-0.4078125-0.7340625-1.0093359375-0.9685546875q-0.6423046875-0.2344921875-0.93796875,0.183515625q-0.0917578125,0.142734375-0.0917578125,0.3160546875l0,2.2123828125l0,0.1325390625q0,0.305859375-0.3160546875,0.3160546875q-0.3160546875-0.0101953125-0.3160546875-0.387421875q0-0.2344921875,0.01529296875-0.48427734375t0.02548828125-0.53525390625q0.0101953125-0.1937109375-0.00509765625-0.3976171875t-0.01529296875-0.3976171875t0.0101953125-0.387421875t0.0101953125-0.387421875q0.0101953125-0.4587890625-0.0305859375-0.9481640625q0-0.3364453125,0.01529296875-0.6830859375t0.00509765625-0.7034765625q-0.0101953125-0.183515625-0.0101953125-0.41291015625t0.061171875-0.41291015625q0.183515625-0.2446875,0.8666015625-0.2446875l0.3160546875,0q0.36703125,0,0.73916015625,0.0305859375t0.73916015625,0.0101953125q0.8462109375-0.04078125,1.3355859375,0.3364453125z M26.2243828125,21.08390625q0.387421875,0.0101953125,0.6830859375,0.0101953125t0.4995703125-0.020390625q0.1937109375-0.020390625,0.43330078125-0.0509765625t0.52505859375-0.0815625q0.5811328125-0.12234375,0.754453125-0.5403515625q0.0713671875-0.1529296875,0.0509765625-0.3364453125t-0.11724609375-0.3364453125t-0.2446875-0.25998046875t-0.32115234375-0.183515625t-0.3364453125-0.10705078125q-0.428203125-0.0815625-0.85130859375-0.06626953125t-0.85130859375-0.00509765625q-0.0815625,0-0.15802734375-0.00509765625t-0.15802734375-0.00509765625q-0.2141015625-0.0101953125-0.32625,0.1121484375q-0.0917578125,0.101953125-0.0713671875,0.28546875q0.0101953125,0.0509765625,0.0101953125,0.2141015625q-0.0101953125,0.1529296875-0.03568359375,0.2956640625t-0.03568359375,0.28546875q-0.061171875,0.3976171875,0.0917578125,0.591328125q0.1325390625,0.183515625,0.4587890625,0.20390625z M38.925703125,24.5503125q0,0.2548828125-0.2141015625,0.32625q-0.183515625,0.0815625-0.32625-0.12234375q-0.0713671875-0.101953125-0.11724609375-0.183515625t-0.07646484375-0.1529296875q-0.142734375-0.305859375-0.2548828125-0.53525390625t-0.224296875-0.37212890625q-0.2446875-0.3364453125-0.5403515625-0.428203125q-0.2548828125-0.0815625-0.815625-0.020390625q-0.32625,0.04078125-0.61681640625,0.0509765625t-0.55564453125-0.0101953125q-0.591328125-0.04078125-0.876796875,0.3772265625l-0.020390625,0.0305859375l-0.0101953125,0.020390625q-0.101953125,0.20390625-0.16822265625,0.40271484375t-0.15802734375,0.38232421875l-0.2141015625,0.3364453125q-0.142734375,0.2141015625-0.2956640625,0.2344921875q-0.0713671875,0.0305859375-0.20390625-0.0815625q-0.061171875-0.061171875-0.07646484375-0.14783203125t0-0.17841796875t0.0509765625-0.18861328125t0.06626953125-0.16822265625l0.2446875-0.509765625q0.3568359375-0.7340625,0.66779296875-1.488515625t0.65759765625-1.5191015625q0.061171875-0.1325390625,0.10705078125-0.24978515625t0.09685546875-0.22939453125q0.1121484375-0.2752734375,0.224296875-0.55564453125t0.2548828125-0.55564453125l0.1529296875-0.2344921875q0.1121484375-0.183515625,0.2141015625-0.1937109375q0.101953125-0.020390625,0.265078125,0.1733203125q0.1733203125,0.20390625,0.33134765625,0.4791796875t0.27017578125,0.5199609375q0.3568359375,0.754453125,0.66779296875,1.51400390625t0.66779296875,1.49361328125q0.1121484375,0.224296875,0.21919921875,0.45369140625t0.22939453125,0.44349609375q0.061171875,0.1529296875,0.12744140625,0.2956640625t0.12744140625,0.28546875q0.0509765625,0.1121484375,0.0815625,0.183515625t0.04078125,0.12234375z M36.90703125,21.695625q-0.101953125-0.2446875-0.19880859375-0.50466796875t-0.22939453125-0.50466796875q-0.2446875-0.468984375-0.5403515625-0.44859375q-0.1121484375,0-0.19880859375,0.061171875t-0.14783203125,0.14783203125t-0.1121484375,0.18861328125t-0.0815625,0.1937109375q-0.1121484375,0.305859375-0.2141015625,0.632109375t-0.1937109375,0.632109375q-0.0713671875,0.224296875,0.020390625,0.3364453125q0.061171875,0.101953125,0.3160546875,0.12234375q0.224296875,0.0101953125,0.3976171875,0.01529296875t0.28546875-0.00509765625q0.224296875,0,0.591328125-0.061171875q0.3772265625-0.061171875,0.44859375-0.3364453125q0.0305859375-0.163125-0.04078125-0.2752734375q-0.020390625-0.04078125-0.05607421875-0.09685546875t-0.04587890625-0.09685546875z M46.1011640625,24.3566015625q0.12234375,0.0815625,0.12234375,0.224296875q0.0101953125,0.3364453125-0.3976171875,0.3364453125q-0.7340625,0-1.468125-0.020390625t-1.468125,0.0305859375q-0.5811328125,0.0305859375-0.7034765625-0.3160546875q-0.061171875-0.1529296875-0.061171875-0.4791796875q0.0101953125-0.1733203125,0.01529296875-0.30076171875t0.00509765625-0.21919921875q0.0101953125-0.224296875,0.02548828125-0.46388671875t0.00509765625-0.47408203125q-0.020390625-0.489375-0.04078125-0.95326171875t-0.0101953125-0.95326171875q0.0101953125-0.2344921875,0.020390625-0.46388671875t0.0101953125-0.47408203125q0.0101953125-0.2956640625,0.00509765625-0.54544921875t-0.02548828125-0.45369140625q-0.020390625-0.2752734375,0.2548828125-0.32625q0.3976171875-0.0815625,0.428203125,0.468984375q0.020390625,0.2344921875,0.0305859375,0.45369140625t0.0305859375,0.42310546875l0,0.265078125l-0.04078125,0.387421875q-0.020390625,0.163125-0.03568359375,0.32625t-0.02548828125,0.3160546875q-0.020390625,0.387421875-0.020390625,0.67798828125t0.0101953125,0.48427734375q0.020390625,0.2446875,0.02548828125,0.509765625t-0.01529296875,0.5607421875q-0.020390625,0.44859375,0.12234375,0.591328125q0.1121484375,0.1325390625,0.4791796875,0.163125q0.183515625,0.020390625,0.36193359375,0.0305859375t0.36193359375,0.0305859375q0.2752734375,0.0305859375,0.5607421875,0.00509765625t0.5709375,0.01529296875q0.183515625,0.020390625,0.44349609375,0.03568359375t0.42310546875,0.10705078125z  M53.6416171875,24.2750390625q-0.0101953125-0.6219140625-0.00509765625-1.243828125t0.00509765625-1.243828125l0-0.3568359375q0-0.2752734375-0.01529296875-0.55564453125t0.00509765625-0.55564453125q0.0101953125-0.305859375,0.0101953125-0.60662109375t0.0101953125-0.60662109375q0-0.36703125,0.1733203125-0.509765625q0.1325390625-0.101953125,0.468984375-0.101953125q0.1733203125-0.0101953125,0.30076171875-0.01529296875t0.21919921875-0.00509765625q0.3976171875-0.0101953125,0.795234375,0.00509765625t0.795234375,0.00509765625q0.2141015625-0.0101953125,0.428203125-0.01529296875t0.4180078125,0.01529296875l0.5199609375,0.0305859375q0.0917578125,0.0101953125,0.15802734375,0.0101953125t0.11724609375,0.020390625q0.2141015625,0.1121484375,0.20390625,0.3160546875q-0.0101953125,0.0917578125-0.0713671875,0.14783203125t-0.13763671875,0.08666015625t-0.15802734375,0.04078125t-0.142734375,0.0101953125q-0.6219140625,0-1.2336328125-0.0305859375q-0.061171875-0.0101953125-0.1529296875-0.0101953125l-0.20390625,0l-0.591328125,0q-0.2344921875,0-0.4180078125,0.00509765625t-0.305859375,0.00509765625q-0.1733203125,0.0101953125-0.28546875,0.04587890625t-0.163125,0.11724609375q-0.0815625,0.12234375-0.061171875,0.305859375l0,0.142734375t-0.0101953125,0.1121484375q-0.020390625,0.12234375-0.0305859375,0.25998046875t0,0.30076171875q0,0.28546875,0.224296875,0.4791796875q0.183515625,0.163125,0.6626953125,0.1325390625q0.2141015625-0.0101953125,0.42310546875-0.03568359375t0.42310546875-0.01529296875q0.0917578125,0,0.23958984375,0.00509765625t0.35173828125-0.00509765625q0.4078125-0.0101953125,0.550546875,0.142734375q0.0509765625,0.0713671875,0.04078125,0.2344921875q-0.0305859375,0.183515625-0.28546875,0.224296875q-0.2344921875,0.04078125-0.3772265625,0.04078125q-0.183515625,0.0101953125-0.36193359375,0.00509765625t-0.36193359375,0.00509765625q-0.224296875,0.020390625-0.4587890625,0.0101953125t-0.489375-0.0305859375q-0.0305859375,0-0.0713671875-0.00509765625t-0.0713671875-0.00509765625l-0.0101953125,0q-0.1121484375-0.020390625-0.224296875,0.0509765625q-0.183515625,0.1121484375-0.20390625,0.387421875q-0.020390625,0.265078125,0,0.4587890625q0.0101953125,0.1121484375,0.01529296875,0.20390625t-0.00509765625,0.163125q-0.020390625,0.1529296875-0.03568359375,0.30076171875t-0.03568359375,0.30076171875q-0.0305859375,0.387421875,0.101953125,0.5811328125q0.1733203125,0.2344921875,0.6015234375,0.2344921875q0.3364453125,0,0.6830859375-0.01529296875t0.69328125-0.03568359375q0.3160546875-0.0101953125,0.64740234375,0.020390625t0.65759765625,0.0305859375q0.12234375,0,0.32625-0.00509765625t0.3160546875,0.05607421875q0.101953125,0.061171875,0.1121484375,0.183515625q0.1121484375,0.36703125-0.3160546875,0.387421875q-0.672890625,0.0305859375-1.32029296875,0.020390625t-1.29990234375,0q-0.04078125,0-0.07646484375,0.00509765625t-0.06626953125,0.00509765625l-0.40271484375,0t-0.28037109375-0.0101953125q-0.0713671875,0-0.16822265625-0.00509765625t-0.21919921875-0.01529296875q-0.101953125-0.0101953125-0.16822265625-0.020390625t-0.09685546875-0.020390625q-0.305859375-0.0917578125-0.305859375-0.5709375z M61.89778125,24.67265625q-0.04078125,0.183515625-0.3160546875,0.2141015625q-0.28546875-0.0101953125-0.28546875-0.3160546875q0-0.795234375-0.03568359375-1.60576171875t0.04587890625-1.60576171875l0-0.0101953125q0-0.2344921875,0.00509765625-0.4587890625t-0.01529296875-0.4383984375l-0.0815625-0.77484375q-0.0305859375-0.32625,0.101953125-0.7034765625q0.101953125-0.265078125,0.2752734375-0.3160546875q0.142734375-0.0305859375,0.2956640625,0.142734375q0.142734375,0.1529296875,0.2141015625,0.265078125q0.1325390625,0.1937109375,0.27017578125,0.346640625t0.27017578125,0.28546875q0.1121484375,0.1325390625,0.22939453125,0.22939453125t0.22939453125,0.21919921875q0.101953125,0.101953125,0.224296875,0.25998046875t0.265078125,0.37212890625l0.44859375,0.69328125q0.0509765625,0.0713671875,0.10705078125,0.163125t0.13763671875,0.2141015625l0.0101953125,0.0101953125q0.2141015625,0.28546875,0.44859375,0.5403515625q0.1121484375,0.12234375,0.224296875,0.22939453125t0.2344921875,0.21919921875q0.1121484375,0.1325390625,0.265078125,0.0815625q0.2344921875-0.061171875,0.224296875-0.468984375q0-0.101953125-0.01529296875-0.2141015625t-0.01529296875-0.224296875q-0.0101953125-0.0815625-0.020390625-0.15802734375t-0.0101953125-0.16822265625q0-0.04078125-0.00509765625-0.0917578125t-0.00509765625-0.1121484375q0.04078125-0.8971875-0.061171875-1.67203125q-0.0101953125-0.0509765625-0.0101953125-0.16822265625t0.020390625-0.30076171875q0.0101953125-0.224296875,0.061171875-0.4791796875q0.0305859375-0.36703125,0.32625-0.36703125q0.32625,0,0.32625,0.387421875q0.0101953125,0.3160546875,0.02548828125,0.63720703125t0.01529296875,0.63720703125q0.0101953125,0.468984375-0.020390625,0.93796875t-0.0101953125,0.93796875q0.020390625,0.3160546875,0.01529296875,0.6219140625t-0.01529296875,0.61171875q0,0.1733203125,0.00509765625,0.34154296875t0.00509765625,0.32115234375l0,0.4078125q-0.0101953125,0.061171875-0.01529296875,0.12234375t-0.00509765625,0.1121484375q-0.0101953125,0.0101953125-0.0101953125,0.020390625t-0.0101953125,0.0101953125q-0.1121484375,0.1529296875-0.346640625,0.1529296875q-0.2752734375,0.020390625-0.4180078125-0.1733203125q-0.1529296875-0.1937109375-0.28037109375-0.4180078125t-0.28037109375-0.4383984375q-0.183515625-0.2446875-0.40271484375-0.52505859375t-0.48427734375-0.59642578125q-0.101953125-0.1121484375-0.28546875-0.4078125l-0.3568359375-0.5709375q-0.1325390625-0.20390625-0.265078125-0.41291015625t-0.2752734375-0.40271484375q-0.061171875-0.0713671875-0.1325390625-0.15802734375t-0.1529296875-0.14783203125t-0.183515625-0.0917578125t-0.20390625,0q-0.2752734375,0.0815625-0.2548828125,0.5607421875q0.0101953125,0.346640625,0.01529296875,0.6525t0.02548828125,0.5709375q0.020390625,0.2141015625-0.00509765625,0.428203125t-0.02548828125,0.4180078125l0,0.795234375q0,0.2548828125-0.01529296875,0.4587890625t-0.03568359375,0.36703125z M74.7010546875,18.9938671875q-0.142734375,0.163125-0.468984375,0.142734375l-0.509765625-0.0305859375q-0.1529296875-0.0101953125-0.2956640625-0.020390625t-0.2956640625-0.0101953125q-0.305859375-0.0101953125-0.44859375,0.1325390625q-0.1121484375,0.1325390625-0.1121484375,0.4383984375q0,0.142734375,0.01529296875,0.28037109375t0.01529296875,0.28037109375q0.0101953125,0.3364453125,0.01529296875,0.58623046875t0.00509765625,0.42310546875q0,0.5199609375-0.061171875,1.039921875q-0.0305859375,0.2446875,0,0.489375t0.04078125,0.4791796875q0.0101953125,0.265078125,0.01529296875,0.4587890625t0.00509765625,0.32625l0,0.13763671875t-0.0101953125,0.21919921875q-0.020390625,0.2752734375-0.04078125,0.3364453125q-0.1325390625,0.224296875-0.346640625,0.163125q-0.265078125-0.0509765625-0.265078125-0.387421875q-0.0101953125-0.305859375,0.01529296875-0.61681640625t0.04587890625-0.61681640625q0.0305859375-0.3568359375-0.00509765625-0.7238671875t-0.03568359375-0.7340625q0-0.3364453125,0.02548828125-0.67798828125t0.03568359375-0.67798828125q0-0.6626953125-0.2141015625-0.93796875q-0.1121484375-0.142734375-0.27017578125-0.21919921875t-0.35173828125-0.09685546875t-0.36193359375-0.03568359375t-0.33134765625-0.01529296875l-0.31095703125,0t-0.29056640625-0.061171875q-0.0815625-0.04078125-0.101953125-0.1937109375q-0.020390625-0.1121484375,0.0305859375-0.1937109375q0.0713671875-0.12234375,0.3568359375-0.1529296875q0.0305859375-0.0101953125,0.1121484375-0.0101953125q0.428203125-0.0101953125,0.83091796875,0.03568359375t0.83091796875,0.01529296875q0.1733203125-0.0101953125,0.34154296875-0.0305859375t0.35173828125-0.020390625l0.67798828125,0t0.67798828125-0.0101953125q0.1733203125,0,0.30076171875,0.0101953125t0.21919921875,0.0509765625q0.3160546875,0.2141015625,0.163125,0.428203125z M81.958078125,18.88171875q0.2141015625,0.2141015625,0.34154296875,0.468984375l0.25998046875,0.5199609375q0.142734375,0.2956640625,0.08666015625,0.59642578125t-0.33134765625,0.58623046875q-0.2141015625,0.224296875-0.713671875,0.3568359375q-0.183515625,0.0509765625-0.39251953125,0.10705078125t-0.29056640625,0.23958984375q-0.061171875,0.1733203125,0.0305859375,0.3568359375q0.101953125,0.1937109375,0.163125,0.3160546875t0.101953125,0.183515625q0.0509765625,0.101953125,0.1325390625,0.22939453125t0.1937109375,0.29056640625q0.2344921875,0.32625,0.49447265625,0.61171875t0.52505859375,0.550546875l0.0509765625,0.0509765625q0.224296875,0.224296875,0.0101953125,0.4383984375q-0.2344921875,0.2344921875-0.44859375,0.0101953125l-0.305859375-0.305859375t-0.2446875-0.265078125q-0.2446875-0.305859375-0.4587890625-0.6423046875q-0.1529296875-0.224296875-0.31095703125-0.43330078125t-0.30076171875-0.45369140625q-0.4078125-0.7340625-1.0093359375-0.9685546875q-0.6423046875-0.2344921875-0.93796875,0.183515625q-0.0917578125,0.142734375-0.0917578125,0.3160546875l0,2.2123828125l0,0.1325390625q0,0.305859375-0.3160546875,0.3160546875q-0.3160546875-0.0101953125-0.3160546875-0.387421875q0-0.2344921875,0.01529296875-0.48427734375t0.02548828125-0.53525390625q0.0101953125-0.1937109375-0.00509765625-0.3976171875t-0.01529296875-0.3976171875t0.0101953125-0.387421875t0.0101953125-0.387421875q0.0101953125-0.4587890625-0.0305859375-0.9481640625q0-0.3364453125,0.01529296875-0.6830859375t0.00509765625-0.7034765625q-0.0101953125-0.183515625-0.0101953125-0.41291015625t0.061171875-0.41291015625q0.183515625-0.2446875,0.8666015625-0.2446875l0.3160546875,0q0.36703125,0,0.73916015625,0.0305859375t0.73916015625,0.0101953125q0.8462109375-0.04078125,1.3355859375,0.3364453125z M79.0931953125,21.08390625q0.387421875,0.0101953125,0.6830859375,0.0101953125t0.4995703125-0.020390625q0.1937109375-0.020390625,0.43330078125-0.0509765625t0.52505859375-0.0815625q0.5811328125-0.12234375,0.754453125-0.5403515625q0.0713671875-0.1529296875,0.0509765625-0.3364453125t-0.11724609375-0.3364453125t-0.2446875-0.25998046875t-0.32115234375-0.183515625t-0.3364453125-0.10705078125q-0.428203125-0.0815625-0.85130859375-0.06626953125t-0.85130859375-0.00509765625q-0.0815625,0-0.15802734375-0.00509765625t-0.15802734375-0.00509765625q-0.2141015625-0.0101953125-0.32625,0.1121484375q-0.0917578125,0.101953125-0.0713671875,0.28546875q0.0101953125,0.0509765625,0.0101953125,0.2141015625q-0.0101953125,0.1529296875-0.03568359375,0.2956640625t-0.03568359375,0.28546875q-0.061171875,0.3976171875,0.0917578125,0.591328125q0.1325390625,0.183515625,0.4587890625,0.20390625z M86.0137734375,24.2750390625q-0.0101953125-0.6219140625-0.00509765625-1.243828125t0.00509765625-1.243828125l0-0.3568359375q0-0.2752734375-0.01529296875-0.55564453125t0.00509765625-0.55564453125q0.0101953125-0.305859375,0.0101953125-0.60662109375t0.0101953125-0.60662109375q0-0.36703125,0.1733203125-0.509765625q0.1325390625-0.101953125,0.468984375-0.101953125q0.1733203125-0.0101953125,0.30076171875-0.01529296875t0.21919921875-0.00509765625q0.3976171875-0.0101953125,0.795234375,0.00509765625t0.795234375,0.00509765625q0.2141015625-0.0101953125,0.428203125-0.01529296875t0.4180078125,0.01529296875l0.5199609375,0.0305859375q0.0917578125,0.0101953125,0.15802734375,0.0101953125t0.11724609375,0.020390625q0.2141015625,0.1121484375,0.20390625,0.3160546875q-0.0101953125,0.0917578125-0.0713671875,0.14783203125t-0.13763671875,0.08666015625t-0.15802734375,0.04078125t-0.142734375,0.0101953125q-0.6219140625,0-1.2336328125-0.0305859375q-0.061171875-0.0101953125-0.1529296875-0.0101953125l-0.20390625,0l-0.591328125,0q-0.2344921875,0-0.4180078125,0.00509765625t-0.305859375,0.00509765625q-0.1733203125,0.0101953125-0.28546875,0.04587890625t-0.163125,0.11724609375q-0.0815625,0.12234375-0.061171875,0.305859375l0,0.142734375t-0.0101953125,0.1121484375q-0.020390625,0.12234375-0.0305859375,0.25998046875t0,0.30076171875q0,0.28546875,0.224296875,0.4791796875q0.183515625,0.163125,0.6626953125,0.1325390625q0.2141015625-0.0101953125,0.42310546875-0.03568359375t0.42310546875-0.01529296875q0.0917578125,0,0.23958984375,0.00509765625t0.35173828125-0.00509765625q0.4078125-0.0101953125,0.550546875,0.142734375q0.0509765625,0.0713671875,0.04078125,0.2344921875q-0.0305859375,0.183515625-0.28546875,0.224296875q-0.2344921875,0.04078125-0.3772265625,0.04078125q-0.183515625,0.0101953125-0.36193359375,0.00509765625t-0.36193359375,0.00509765625q-0.224296875,0.020390625-0.4587890625,0.0101953125t-0.489375-0.0305859375q-0.0305859375,0-0.0713671875-0.00509765625t-0.0713671875-0.00509765625l-0.0101953125,0q-0.1121484375-0.020390625-0.224296875,0.0509765625q-0.183515625,0.1121484375-0.20390625,0.387421875q-0.020390625,0.265078125,0,0.4587890625q0.0101953125,0.1121484375,0.01529296875,0.20390625t-0.00509765625,0.163125q-0.020390625,0.1529296875-0.03568359375,0.30076171875t-0.03568359375,0.30076171875q-0.0305859375,0.387421875,0.101953125,0.5811328125q0.1733203125,0.2344921875,0.6015234375,0.2344921875q0.3364453125,0,0.6830859375-0.01529296875t0.69328125-0.03568359375q0.3160546875-0.0101953125,0.64740234375,0.020390625t0.65759765625,0.0305859375q0.12234375,0,0.32625-0.00509765625t0.3160546875,0.05607421875q0.101953125,0.061171875,0.1121484375,0.183515625q0.1121484375,0.36703125-0.3160546875,0.387421875q-0.672890625,0.0305859375-1.32029296875,0.020390625t-1.29990234375,0q-0.04078125,0-0.07646484375,0.00509765625t-0.06626953125,0.00509765625l-0.40271484375,0t-0.28037109375-0.0101953125q-0.0713671875,0-0.16822265625-0.00509765625t-0.21919921875-0.01529296875q-0.101953125-0.0101953125-0.16822265625-0.020390625t-0.09685546875-0.020390625q-0.305859375-0.0917578125-0.305859375-0.5709375z M94.290328125,22.3379296875q0.0101953125,0.2548828125,0,0.509765625t0,0.4995703125q0.0101953125,0.815625,0,1.2234375q0,0.183515625-0.1529296875,0.2752734375q-0.163125,0.0815625-0.28546875,0.0101953125q-0.12234375-0.04078125-0.142734375-0.2344921875q-0.020390625-0.32625-0.0305859375-0.6525t-0.0101953125-0.6626953125q0.0101953125-0.4078125,0.01529296875-0.815625t0.00509765625-0.836015625q0-0.2446875,0.00509765625-0.49447265625t-0.00509765625-0.49447265625q0-0.28546875-0.00509765625-0.59642578125t0.01529296875-0.65759765625q0.0101953125-0.061171875,0.0101953125-0.1529296875l0-0.224296875q0-0.2141015625,0.0101953125-0.2446875q0.0101953125-0.0917578125,0.1733203125-0.20390625q0.1325390625-0.0815625,0.5403515625-0.101953125q0.20390625-0.0101953125,0.35173828125-0.01529296875t0.24978515625-0.00509765625q0.2752734375-0.0101953125,0.56583984375,0.0101953125t0.58623046875,0.0305859375q0.163125,0.0101953125,0.36193359375,0.02548828125t0.43330078125,0.05607421875q0.468984375,0.061171875,0.7340625,0.2752734375l0.0101953125,0q0.346640625,0.2956640625,0.52505859375,0.6423046875t0.15802734375,0.77484375q-0.0101953125,0.2956640625-0.142734375,0.51486328125t-0.36703125,0.38232421875q-0.4383984375,0.305859375-0.958359375,0.4180078125q0.04078125-0.020390625-0.142734375,0.0305859375q-0.305859375,0.04078125-0.61681640625,0.02548828125t-0.61681640625,0.02548828125q-0.101953125,0.0101953125-0.23958984375,0.01529296875t-0.33134765625-0.00509765625q-0.3568359375-0.020390625-0.5199609375,0.101953125q-0.20390625,0.1529296875-0.183515625,0.550546875z M95.98275,21.043125q0.3976171875,0,0.77484375-0.04078125t0.7340625-0.305859375q0.3772265625-0.28546875,0.305859375-0.672890625q-0.0815625-0.387421875-0.428203125-0.632109375q-0.0815625-0.061171875-0.18861328125-0.10705078125t-0.21919921875-0.08666015625q-0.5199609375-0.1121484375-0.9685546875-0.0509765625q-0.224296875,0.0305859375-0.4587890625,0.04587890625t-0.4791796875,0.00509765625q-0.12234375,0-0.2141015625-0.00509765625t-0.142734375-0.01529296875q-0.061171875-0.020390625-0.1121484375,0q-0.2548828125,0.061171875-0.2752734375,0.44859375q-0.0101953125,0.0815625-0.01529296875,0.2141015625t-0.00509765625,0.305859375q0.0101953125,0.0509765625,0.0101953125,0.12744140625l0,0.17841796875q0.020390625,0.3568359375,0.224296875,0.5199609375q0.1937109375,0.1733203125,0.672890625,0.1529296875q0.1733203125-0.0101953125,0.34154296875-0.0305859375t0.35173828125-0.0509765625l0.0917578125,0z M105.45215625,18.88171875q0.2141015625,0.2141015625,0.34154296875,0.468984375l0.25998046875,0.5199609375q0.142734375,0.2956640625,0.08666015625,0.59642578125t-0.33134765625,0.58623046875q-0.2141015625,0.224296875-0.713671875,0.3568359375q-0.183515625,0.0509765625-0.39251953125,0.10705078125t-0.29056640625,0.23958984375q-0.061171875,0.1733203125,0.0305859375,0.3568359375q0.101953125,0.1937109375,0.163125,0.3160546875t0.101953125,0.183515625q0.0509765625,0.101953125,0.1325390625,0.22939453125t0.1937109375,0.29056640625q0.2344921875,0.32625,0.49447265625,0.61171875t0.52505859375,0.550546875l0.0509765625,0.0509765625q0.224296875,0.224296875,0.0101953125,0.4383984375q-0.2344921875,0.2344921875-0.44859375,0.0101953125l-0.305859375-0.305859375t-0.2446875-0.265078125q-0.2446875-0.305859375-0.4587890625-0.6423046875q-0.1529296875-0.224296875-0.31095703125-0.43330078125t-0.30076171875-0.45369140625q-0.4078125-0.7340625-1.0093359375-0.9685546875q-0.6423046875-0.2344921875-0.93796875,0.183515625q-0.0917578125,0.142734375-0.0917578125,0.3160546875l0,2.2123828125l0,0.1325390625q0,0.305859375-0.3160546875,0.3160546875q-0.3160546875-0.0101953125-0.3160546875-0.387421875q0-0.2344921875,0.01529296875-0.48427734375t0.02548828125-0.53525390625q0.0101953125-0.1937109375-0.00509765625-0.3976171875t-0.01529296875-0.3976171875t0.0101953125-0.387421875t0.0101953125-0.387421875q0.0101953125-0.4587890625-0.0305859375-0.9481640625q0-0.3364453125,0.01529296875-0.6830859375t0.00509765625-0.7034765625q-0.0101953125-0.183515625-0.0101953125-0.41291015625t0.061171875-0.41291015625q0.183515625-0.2446875,0.8666015625-0.2446875l0.3160546875,0q0.36703125,0,0.73916015625,0.0305859375t0.73916015625,0.0101953125q0.8462109375-0.04078125,1.3355859375,0.3364453125z M102.5872734375,21.08390625q0.387421875,0.0101953125,0.6830859375,0.0101953125t0.4995703125-0.020390625q0.1937109375-0.020390625,0.43330078125-0.0509765625t0.52505859375-0.0815625q0.5811328125-0.12234375,0.754453125-0.5403515625q0.0713671875-0.1529296875,0.0509765625-0.3364453125t-0.11724609375-0.3364453125t-0.2446875-0.25998046875t-0.32115234375-0.183515625t-0.3364453125-0.10705078125q-0.428203125-0.0815625-0.85130859375-0.06626953125t-0.85130859375-0.00509765625q-0.0815625,0-0.15802734375-0.00509765625t-0.15802734375-0.00509765625q-0.2141015625-0.0101953125-0.32625,0.1121484375q-0.0917578125,0.101953125-0.0713671875,0.28546875q0.0101953125,0.0509765625,0.0101953125,0.2141015625q-0.0101953125,0.1529296875-0.03568359375,0.2956640625t-0.03568359375,0.28546875q-0.061171875,0.3976171875,0.0917578125,0.591328125q0.1325390625,0.183515625,0.4587890625,0.20390625z M109.5078515625,24.2750390625q-0.0101953125-0.6219140625-0.00509765625-1.243828125t0.00509765625-1.243828125l0-0.3568359375q0-0.2752734375-0.01529296875-0.55564453125t0.00509765625-0.55564453125q0.0101953125-0.305859375,0.0101953125-0.60662109375t0.0101953125-0.60662109375q0-0.36703125,0.1733203125-0.509765625q0.1325390625-0.101953125,0.468984375-0.101953125q0.1733203125-0.0101953125,0.30076171875-0.01529296875t0.21919921875-0.00509765625q0.3976171875-0.0101953125,0.795234375,0.00509765625t0.795234375,0.00509765625q0.2141015625-0.0101953125,0.428203125-0.01529296875t0.4180078125,0.01529296875l0.5199609375,0.0305859375q0.0917578125,0.0101953125,0.15802734375,0.0101953125t0.11724609375,0.020390625q0.2141015625,0.1121484375,0.20390625,0.3160546875q-0.0101953125,0.0917578125-0.0713671875,0.14783203125t-0.13763671875,0.08666015625t-0.15802734375,0.04078125t-0.142734375,0.0101953125q-0.6219140625,0-1.2336328125-0.0305859375q-0.061171875-0.0101953125-0.1529296875-0.0101953125l-0.20390625,0l-0.591328125,0q-0.2344921875,0-0.4180078125,0.00509765625t-0.305859375,0.00509765625q-0.1733203125,0.0101953125-0.28546875,0.04587890625t-0.163125,0.11724609375q-0.0815625,0.12234375-0.061171875,0.305859375l0,0.142734375t-0.0101953125,0.1121484375q-0.020390625,0.12234375-0.0305859375,0.25998046875t0,0.30076171875q0,0.28546875,0.224296875,0.4791796875q0.183515625,0.163125,0.6626953125,0.1325390625q0.2141015625-0.0101953125,0.42310546875-0.03568359375t0.42310546875-0.01529296875q0.0917578125,0,0.23958984375,0.00509765625t0.35173828125-0.00509765625q0.4078125-0.0101953125,0.550546875,0.142734375q0.0509765625,0.0713671875,0.04078125,0.2344921875q-0.0305859375,0.183515625-0.28546875,0.224296875q-0.2344921875,0.04078125-0.3772265625,0.04078125q-0.183515625,0.0101953125-0.36193359375,0.00509765625t-0.36193359375,0.00509765625q-0.224296875,0.020390625-0.4587890625,0.0101953125t-0.489375-0.0305859375q-0.0305859375,0-0.0713671875-0.00509765625t-0.0713671875-0.00509765625l-0.0101953125,0q-0.1121484375-0.020390625-0.224296875,0.0509765625q-0.183515625,0.1121484375-0.20390625,0.387421875q-0.020390625,0.265078125,0,0.4587890625q0.0101953125,0.1121484375,0.01529296875,0.20390625t-0.00509765625,0.163125q-0.020390625,0.1529296875-0.03568359375,0.30076171875t-0.03568359375,0.30076171875q-0.0305859375,0.387421875,0.101953125,0.5811328125q0.1733203125,0.2344921875,0.6015234375,0.2344921875q0.3364453125,0,0.6830859375-0.01529296875t0.69328125-0.03568359375q0.3160546875-0.0101953125,0.64740234375,0.020390625t0.65759765625,0.0305859375q0.12234375,0,0.32625-0.00509765625t0.3160546875,0.05607421875q0.101953125,0.061171875,0.1121484375,0.183515625q0.1121484375,0.36703125-0.3160546875,0.387421875q-0.672890625,0.0305859375-1.32029296875,0.020390625t-1.29990234375,0q-0.04078125,0-0.07646484375,0.00509765625t-0.06626953125,0.00509765625l-0.40271484375,0t-0.28037109375-0.0101953125q-0.0713671875,0-0.16822265625-0.00509765625t-0.21919921875-0.01529296875q-0.101953125-0.0101953125-0.16822265625-0.020390625t-0.09685546875-0.020390625q-0.305859375-0.0917578125-0.305859375-0.5709375z M117.764015625,24.67265625q-0.04078125,0.183515625-0.3160546875,0.2141015625q-0.28546875-0.0101953125-0.28546875-0.3160546875q0-0.795234375-0.03568359375-1.60576171875t0.04587890625-1.60576171875l0-0.0101953125q0-0.2344921875,0.00509765625-0.4587890625t-0.01529296875-0.4383984375l-0.0815625-0.77484375q-0.0305859375-0.32625,0.101953125-0.7034765625q0.101953125-0.265078125,0.2752734375-0.3160546875q0.142734375-0.0305859375,0.2956640625,0.142734375q0.142734375,0.1529296875,0.2141015625,0.265078125q0.1325390625,0.1937109375,0.27017578125,0.346640625t0.27017578125,0.28546875q0.1121484375,0.1325390625,0.22939453125,0.22939453125t0.22939453125,0.21919921875q0.101953125,0.101953125,0.224296875,0.25998046875t0.265078125,0.37212890625l0.44859375,0.69328125q0.0509765625,0.0713671875,0.10705078125,0.163125t0.13763671875,0.2141015625l0.0101953125,0.0101953125q0.2141015625,0.28546875,0.44859375,0.5403515625q0.1121484375,0.12234375,0.224296875,0.22939453125t0.2344921875,0.21919921875q0.1121484375,0.1325390625,0.265078125,0.0815625q0.2344921875-0.061171875,0.224296875-0.468984375q0-0.101953125-0.01529296875-0.2141015625t-0.01529296875-0.224296875q-0.0101953125-0.0815625-0.020390625-0.15802734375t-0.0101953125-0.16822265625q0-0.04078125-0.00509765625-0.0917578125t-0.00509765625-0.1121484375q0.04078125-0.8971875-0.061171875-1.67203125q-0.0101953125-0.0509765625-0.0101953125-0.16822265625t0.020390625-0.30076171875q0.0101953125-0.224296875,0.061171875-0.4791796875q0.0305859375-0.36703125,0.32625-0.36703125q0.32625,0,0.32625,0.387421875q0.0101953125,0.3160546875,0.02548828125,0.63720703125t0.01529296875,0.63720703125q0.0101953125,0.468984375-0.020390625,0.93796875t-0.0101953125,0.93796875q0.020390625,0.3160546875,0.01529296875,0.6219140625t-0.01529296875,0.61171875q0,0.1733203125,0.00509765625,0.34154296875t0.00509765625,0.32115234375l0,0.4078125q-0.0101953125,0.061171875-0.01529296875,0.12234375t-0.00509765625,0.1121484375q-0.0101953125,0.0101953125-0.0101953125,0.020390625t-0.0101953125,0.0101953125q-0.1121484375,0.1529296875-0.346640625,0.1529296875q-0.2752734375,0.020390625-0.4180078125-0.1733203125q-0.1529296875-0.1937109375-0.28037109375-0.4180078125t-0.28037109375-0.4383984375q-0.183515625-0.2446875-0.40271484375-0.52505859375t-0.48427734375-0.59642578125q-0.101953125-0.1121484375-0.28546875-0.4078125l-0.3568359375-0.5709375q-0.1325390625-0.20390625-0.265078125-0.41291015625t-0.2752734375-0.40271484375q-0.061171875-0.0713671875-0.1325390625-0.15802734375t-0.1529296875-0.14783203125t-0.183515625-0.0917578125t-0.20390625,0q-0.2752734375,0.0815625-0.2548828125,0.5607421875q0.0101953125,0.346640625,0.01529296875,0.6525t0.02548828125,0.5709375q0.020390625,0.2141015625-0.00509765625,0.428203125t-0.02548828125,0.4180078125l0,0.795234375q0,0.2548828125-0.01529296875,0.4587890625t-0.03568359375,0.36703125z M125.66334375,24.2750390625q-0.0101953125-0.6219140625-0.00509765625-1.243828125t0.00509765625-1.243828125l0-0.3568359375q0-0.2752734375-0.01529296875-0.55564453125t0.00509765625-0.55564453125q0.0101953125-0.305859375,0.0101953125-0.60662109375t0.0101953125-0.60662109375q0-0.36703125,0.1733203125-0.509765625q0.1325390625-0.101953125,0.468984375-0.101953125q0.1733203125-0.0101953125,0.30076171875-0.01529296875t0.21919921875-0.00509765625q0.3976171875-0.0101953125,0.795234375,0.00509765625t0.795234375,0.00509765625q0.2141015625-0.0101953125,0.428203125-0.01529296875t0.4180078125,0.01529296875l0.5199609375,0.0305859375q0.0917578125,0.0101953125,0.15802734375,0.0101953125t0.11724609375,0.020390625q0.2141015625,0.1121484375,0.20390625,0.3160546875q-0.0101953125,0.0917578125-0.0713671875,0.14783203125t-0.13763671875,0.08666015625t-0.15802734375,0.04078125t-0.142734375,0.0101953125q-0.6219140625,0-1.2336328125-0.0305859375q-0.061171875-0.0101953125-0.1529296875-0.0101953125l-0.20390625,0l-0.591328125,0q-0.2344921875,0-0.4180078125,0.00509765625t-0.305859375,0.00509765625q-0.1733203125,0.0101953125-0.28546875,0.04587890625t-0.163125,0.11724609375q-0.0815625,0.12234375-0.061171875,0.305859375l0,0.142734375t-0.0101953125,0.1121484375q-0.020390625,0.12234375-0.0305859375,0.25998046875t0,0.30076171875q0,0.28546875,0.224296875,0.4791796875q0.183515625,0.163125,0.6626953125,0.1325390625q0.2141015625-0.0101953125,0.42310546875-0.03568359375t0.42310546875-0.01529296875q0.0917578125,0,0.23958984375,0.00509765625t0.35173828125-0.00509765625q0.4078125-0.0101953125,0.550546875,0.142734375q0.0509765625,0.0713671875,0.04078125,0.2344921875q-0.0305859375,0.183515625-0.28546875,0.224296875q-0.2344921875,0.04078125-0.3772265625,0.04078125q-0.183515625,0.0101953125-0.36193359375,0.00509765625t-0.36193359375,0.00509765625q-0.224296875,0.020390625-0.4587890625,0.0101953125t-0.489375-0.0305859375q-0.0305859375,0-0.0713671875-0.00509765625t-0.0713671875-0.00509765625l-0.0101953125,0q-0.1121484375-0.020390625-0.224296875,0.0509765625q-0.183515625,0.1121484375-0.20390625,0.387421875q-0.020390625,0.265078125,0,0.4587890625q0.0101953125,0.1121484375,0.01529296875,0.20390625t-0.00509765625,0.163125q-0.020390625,0.1529296875-0.03568359375,0.30076171875t-0.03568359375,0.30076171875q-0.0305859375,0.387421875,0.101953125,0.5811328125q0.1733203125,0.2344921875,0.6015234375,0.2344921875q0.3364453125,0,0.6830859375-0.01529296875t0.69328125-0.03568359375q0.3160546875-0.0101953125,0.64740234375,0.020390625t0.65759765625,0.0305859375q0.12234375,0,0.32625-0.00509765625t0.3160546875,0.05607421875q0.101953125,0.061171875,0.1121484375,0.183515625q0.1121484375,0.36703125-0.3160546875,0.387421875q-0.672890625,0.0305859375-1.32029296875,0.020390625t-1.29990234375,0q-0.04078125,0-0.07646484375,0.00509765625t-0.06626953125,0.00509765625l-0.40271484375,0t-0.28037109375-0.0101953125q-0.0713671875,0-0.16822265625-0.00509765625t-0.21919921875-0.01529296875q-0.101953125-0.0101953125-0.16822265625-0.020390625t-0.09685546875-0.020390625q-0.305859375-0.0917578125-0.305859375-0.5709375z M138.02821875,18.5044921875q0.305859375-0.0101953125,0.305859375,0.305859375q0,0.428203125-0.00509765625,0.836015625t-0.05607421875,0.836015625q-0.0509765625,0.3976171875-0.00509765625,0.7850390625t0.04587890625,0.77484375l0,0.0713671875l-0.04078125,0.69328125q-0.020390625,0.224296875-0.0509765625,0.3976171875t-0.0509765625,0.28546875l-0.020390625,0.04078125l-0.020390625,0.0713671875l0,0.0101953125q-0.0305859375,0.12234375-0.1121484375,0.24978515625t-0.17841796875,0.2446875t-0.20900390625,0.21919921875t-0.20390625,0.183515625q-0.1733203125,0.1529296875-0.3772265625,0.2446875t-0.428203125,0.1325390625t-0.45369140625,0.05607421875t-0.44349609375,0.01529296875q-0.3772265625,0-0.7340625-0.08666015625t-0.69328125-0.29056640625q-0.020390625-0.020390625-0.020390625-0.0305859375q-0.0305859375-0.0101953125-0.0509765625-0.0305859375l-0.04078125-0.04078125q-0.0305859375-0.020390625-0.0509765625-0.03568359375t-0.04078125-0.04587890625q-0.509765625-0.5403515625-0.6525-1.34578125q-0.061171875-0.3976171875-0.0815625-0.77994140625t0-0.74935546875q0.0101953125-0.0917578125,0.020390625-0.17841796875t0.020390625-0.17841796875q0.0101953125-0.12234375,0.00509765625-0.2344921875t-0.01529296875-0.2141015625q-0.061171875-0.8054296875-0.0305859375-1.9065234375q0.0101953125-0.2141015625,0.265078125-0.305859375q0.20390625-0.061171875,0.346640625,0.04078125q0.0815625,0.0815625,0.0815625,0.183515625q0.0101953125,0.142734375,0.00509765625,0.36703125t-0.01529296875,0.5199609375q0,0.2548828125-0.020390625,0.509765625t-0.020390625,0.4995703125q0,0.305859375-0.020390625,0.59642578125t-0.020390625,0.58623046875q0,0.5709375,0.183515625,1.284609375q0.020390625,0.0917578125,0.04587890625,0.16822265625t0.04587890625,0.15802734375q0.1529296875,0.4791796875,0.468984375,0.6626953125q0.2344921875,0.142734375,0.876796875,0.183515625q0.0815625,0.0101953125,0.163125,0.02548828125t0.1733203125,0.01529296875l0.0101953125,0l0.0101953125,0q0.489375,0,0.85640625-0.1733203125t0.6219140625-0.6015234375q0.20390625-0.346640625,0.20390625-1.0603125l0-0.22939453125t0.0101953125-0.15802734375q0.101953125-0.9073828125-0.020390625-1.896328125q-0.020390625-0.1325390625,0.0305859375-0.489375q0.020390625-0.142734375,0.0305859375-0.2548828125t0.0101953125-0.1937109375q0-0.4383984375,0.061171875-0.591328125q0.0815625-0.1529296875,0.28546875-0.1529296875z M145.7950078125,18.88171875q0.2141015625,0.2141015625,0.34154296875,0.468984375l0.25998046875,0.5199609375q0.142734375,0.2956640625,0.08666015625,0.59642578125t-0.33134765625,0.58623046875q-0.2141015625,0.224296875-0.713671875,0.3568359375q-0.183515625,0.0509765625-0.39251953125,0.10705078125t-0.29056640625,0.23958984375q-0.061171875,0.1733203125,0.0305859375,0.3568359375q0.101953125,0.1937109375,0.163125,0.3160546875t0.101953125,0.183515625q0.0509765625,0.101953125,0.1325390625,0.22939453125t0.1937109375,0.29056640625q0.2344921875,0.32625,0.49447265625,0.61171875t0.52505859375,0.550546875l0.0509765625,0.0509765625q0.224296875,0.224296875,0.0101953125,0.4383984375q-0.2344921875,0.2344921875-0.44859375,0.0101953125l-0.305859375-0.305859375t-0.2446875-0.265078125q-0.2446875-0.305859375-0.4587890625-0.6423046875q-0.1529296875-0.224296875-0.31095703125-0.43330078125t-0.30076171875-0.45369140625q-0.4078125-0.7340625-1.0093359375-0.9685546875q-0.6423046875-0.2344921875-0.93796875,0.183515625q-0.0917578125,0.142734375-0.0917578125,0.3160546875l0,2.2123828125l0,0.1325390625q0,0.305859375-0.3160546875,0.3160546875q-0.3160546875-0.0101953125-0.3160546875-0.387421875q0-0.2344921875,0.01529296875-0.48427734375t0.02548828125-0.53525390625q0.0101953125-0.1937109375-0.00509765625-0.3976171875t-0.01529296875-0.3976171875t0.0101953125-0.387421875t0.0101953125-0.387421875q0.0101953125-0.4587890625-0.0305859375-0.9481640625q0-0.3364453125,0.01529296875-0.6830859375t0.00509765625-0.7034765625q-0.0101953125-0.183515625-0.0101953125-0.41291015625t0.061171875-0.41291015625q0.183515625-0.2446875,0.8666015625-0.2446875l0.3160546875,0q0.36703125,0,0.73916015625,0.0305859375t0.73916015625,0.0101953125q0.8462109375-0.04078125,1.3355859375,0.3364453125z M142.930125,21.08390625q0.387421875,0.0101953125,0.6830859375,0.0101953125t0.4995703125-0.020390625q0.1937109375-0.020390625,0.43330078125-0.0509765625t0.52505859375-0.0815625q0.5811328125-0.12234375,0.754453125-0.5403515625q0.0713671875-0.1529296875,0.0509765625-0.3364453125t-0.11724609375-0.3364453125t-0.2446875-0.25998046875t-0.32115234375-0.183515625t-0.3364453125-0.10705078125q-0.428203125-0.0815625-0.85130859375-0.06626953125t-0.85130859375-0.00509765625q-0.0815625,0-0.15802734375-0.00509765625t-0.15802734375-0.00509765625q-0.2141015625-0.0101953125-0.32625,0.1121484375q-0.0917578125,0.101953125-0.0713671875,0.28546875q0.0101953125,0.0509765625,0.0101953125,0.2141015625q-0.0101953125,0.1529296875-0.03568359375,0.2956640625t-0.03568359375,0.28546875q-0.061171875,0.3976171875,0.0917578125,0.591328125q0.1325390625,0.183515625,0.4587890625,0.20390625z M154.295859375,23.9691796875q-0.1733203125,0.2141015625-0.33134765625,0.3772265625t-0.33134765625,0.28037109375t-0.38232421875,0.1937109375t-0.47408203125,0.10705078125q-0.1325390625,0.020390625-0.2752734375,0.02548828125t-0.305859375-0.01529296875q-0.224296875-0.020390625-0.4383984375-0.020390625t-0.4383984375-0.0509765625q-0.489375-0.1121484375-0.815625-0.3364453125t-0.4995703125-0.5811328125q-0.224296875-0.489375,0.2548828125-0.509765625q0.0815625,0,0.18861328125,0.11724609375t0.16822265625,0.17841796875q0.2141015625,0.2141015625,0.2446875,0.2344921875l0.0101953125,0l0,0.0101953125q0.4995703125,0.346640625,1.325390625,0.346640625l0.0101953125,0l0.0101953125,0q0.346640625,0,0.8869921875-0.142734375q0.53015625-0.1325390625,0.7034765625-0.5403515625q0.0917578125-0.2446875,0-0.53015625l0-0.0101953125q-0.2548828125-0.5403515625-0.9889453125-0.7238671875l-1.2540234375-0.32625q-0.265078125-0.061171875-0.6423046875-0.2548828125q-0.1937109375-0.101953125-0.3364453125-0.183515625t-0.2344921875-0.163125q-0.4180078125-0.305859375-0.489375-0.61171875q-0.0101953125-0.0509765625-0.0101953125-0.142734375l0-0.224296875q0-0.142734375,0.020390625-0.28037109375t0.04078125-0.29056640625q0.061171875-0.468984375,0.3976171875-0.836015625q0.1529296875-0.1529296875,0.37212890625-0.25998046875t0.42310546875-0.19880859375q0.28546875-0.1325390625,0.59642578125-0.13763671875t0.61681640625,0.00509765625q0.999140625,0.0305859375,1.5598828125,0.7034765625q0.2548828125,0.3160546875,0.1937109375,0.5199609375l-0.0713671875,0.061171875q-0.163125,0.0815625-0.387421875-0.1121484375q-0.061171875-0.04078125-0.1121484375-0.0917578125l-0.101953125-0.101953125t-0.1325390625-0.10705078125t-0.183515625-0.10705078125l-0.020390625-0.020390625l-0.0305859375,0q-0.3772265625-0.1121484375-0.76974609375-0.1325390625t-0.81052734375,0.0713671875q-0.4995703125,0.1121484375-0.7646484375,0.41291015625t-0.265078125,0.80033203125l0,0.020390625l0.0101953125,0.020390625q0.04078125,0.632109375,0.97875,0.8971875l0.2956640625,0.0815625l0.754453125,0.2548828125q0.1733203125,0.061171875,0.346640625,0.13763671875t0.36703125,0.15802734375q0.28546875,0.1325390625,0.53015625,0.2548828125t0.44859375,0.2548828125q0.142734375,0.0917578125,0.21919921875,0.224296875t0.101953125,0.28546875t0.020390625,0.3160546875t-0.03568359375,0.2956640625q-0.020390625,0.1121484375-0.06626953125,0.2141015625t-0.09685546875,0.183515625z M159.9114375,20.8698046875q0.36703125,0.0101953125,0.7340625,0.02548828125t0.7340625,0.06626953125q0.28546875,0.04078125,0.4383984375-0.12234375q0.1121484375-0.12234375,0.10705078125-0.305859375t-0.00509765625-0.346640625q0.0101953125-0.2548828125,0.0101953125-0.44349609375l0-0.31095703125q0-0.061171875,0.00509765625-0.163125t0.0101953125-0.20900390625t0.020390625-0.20900390625t0.04587890625-0.163125q0.0917578125-0.2141015625,0.3364453125-0.1937109375q0.265078125,0.0305859375,0.265078125,0.4587890625q-0.0101953125,0.2548828125-0.0305859375,0.509765625t0,0.4995703125l0,0.0101953125q0,0.4078125,0.020390625,0.815625t0.04078125,0.8054296875q0.020390625,0.2446875,0,0.49447265625t-0.020390625,0.49447265625q-0.0101953125,0.428203125-0.0101953125,0.85130859375l0,0.85130859375q0,0.3772265625-0.0713671875,0.489375q-0.04078125,0.0713671875-0.163125,0.101953125q-0.36703125,0.0917578125-0.4180078125-0.32625q-0.0509765625-0.5199609375-0.03568359375-1.0501171875t-0.00509765625-1.0603125q-0.0101953125-0.1937109375-0.04587890625-0.428203125t-0.19880859375-0.3772265625q-0.1529296875-0.12234375-0.53015625-0.12234375q-0.183515625,0-0.36193359375,0.0101953125t-0.36193359375,0l-0.5811328125,0q-0.183515625,0.0101953125-0.36193359375-0.00509765625t-0.36193359375-0.02548828125q-0.387421875-0.0305859375-0.5811328125,0.101953125q-0.2344921875,0.20390625-0.2344921875,0.6830859375q0,0.3160546875,0.0101953125,0.63720703125t0.0101953125,0.62701171875q0,0.2548828125-0.0101953125,0.44349609375t-0.0101953125,0.32115234375q-0.0101953125,0.142734375-0.020390625,0.2446875t-0.0305859375,0.1733203125q-0.1121484375,0.2141015625-0.3568359375,0.1529296875q-0.2446875-0.04078125-0.2446875-0.3772265625l0-0.6626953125t0.0101953125-0.6626953125q0.0101953125-0.3160546875,0-0.63720703125t-0.0101953125-0.64740234375q0-0.5199609375,0.0101953125-1.039921875l0.020390625-1.039921875q0-0.0815625-0.0101953125-0.224296875t-0.020390625-0.3568359375q-0.020390625-0.4383984375,0.0305859375-0.550546875q0.1325390625-0.1937109375,0.305859375-0.183515625q0.305859375,0.0101953125,0.3364453125,0.4791796875q0.0101953125,0.12234375,0.01529296875,0.2141015625t0.00509765625,0.163125l0,0.142734375t-0.020390625,0.2141015625l-0.04078125,0.305859375t-0.020390625,0.2956640625q-0.020390625,0.32625,0.12234375,0.44859375q0.1529296875,0.1121484375,0.4078125,0.0713671875q0.142734375-0.0101953125,0.2446875-0.0101953125l0.1733203125,0q0.1733203125,0.0101953125,0.346640625,0.0305859375t0.3568359375,0.020390625z M166.4547890625,24.8867578125q-0.32625-0.0509765625-0.32625-0.387421875q-0.0101953125-0.550546875-0.0101953125-1.080703125l0-1.080703125q0-0.305859375,0.0305859375-0.61171875q0.020390625-0.224296875,0.020390625-0.4180078125t-0.0101953125-0.3568359375q-0.0101953125-0.101953125-0.020390625-0.2446875t-0.020390625-0.3364453125q0-0.101953125,0.00509765625-0.2446875t0.01529296875-0.3364453125q0.0101953125-0.142734375,0.01529296875-0.24978515625t0.00509765625-0.18861328125l0-0.224296875l0-0.0101953125l0-0.0815625q-0.0305859375-0.2548828125,0.0101953125-0.3568359375q0.0305859375-0.0713671875,0.1325390625-0.142734375q0.3976171875-0.20390625,0.489375,0.2548828125q0.0815625,0.346640625,0.09685546875,0.67798828125t-0.01529296875,0.65759765625l0,0.0101953125q-0.0305859375,0.3160546875-0.01529296875,0.632109375t-0.01529296875,0.632109375q-0.0305859375,0.2752734375-0.0509765625,0.4791796875t-0.0305859375,0.346640625q-0.020390625,0.20390625-0.020390625,0.42310546875t0.0101953125,0.46388671875q0.0101953125,0.0509765625,0.0101953125,0.11724609375l0,0.15802734375l0,0.32625t0.0101953125,0.3160546875q0,0.1121484375,0.00509765625,0.20900390625t-0.00509765625,0.19880859375q0,0.20390625-0.0101953125,0.224296875q-0.04078125,0.1937109375-0.305859375,0.224296875z M170.877515625,22.3379296875q0.0101953125,0.2548828125,0,0.509765625t0,0.4995703125q0.0101953125,0.815625,0,1.2234375q0,0.183515625-0.1529296875,0.2752734375q-0.163125,0.0815625-0.28546875,0.0101953125q-0.12234375-0.04078125-0.142734375-0.2344921875q-0.020390625-0.32625-0.0305859375-0.6525t-0.0101953125-0.6626953125q0.0101953125-0.4078125,0.01529296875-0.815625t0.00509765625-0.836015625q0-0.2446875,0.00509765625-0.49447265625t-0.00509765625-0.49447265625q0-0.28546875-0.00509765625-0.59642578125t0.01529296875-0.65759765625q0.0101953125-0.061171875,0.0101953125-0.1529296875l0-0.224296875q0-0.2141015625,0.0101953125-0.2446875q0.0101953125-0.0917578125,0.1733203125-0.20390625q0.1325390625-0.0815625,0.5403515625-0.101953125q0.20390625-0.0101953125,0.35173828125-0.01529296875t0.24978515625-0.00509765625q0.2752734375-0.0101953125,0.56583984375,0.0101953125t0.58623046875,0.0305859375q0.163125,0.0101953125,0.36193359375,0.02548828125t0.43330078125,0.05607421875q0.468984375,0.061171875,0.7340625,0.2752734375l0.0101953125,0q0.346640625,0.2956640625,0.52505859375,0.6423046875t0.15802734375,0.77484375q-0.0101953125,0.2956640625-0.142734375,0.51486328125t-0.36703125,0.38232421875q-0.4383984375,0.305859375-0.958359375,0.4180078125q0.04078125-0.020390625-0.142734375,0.0305859375q-0.305859375,0.04078125-0.61681640625,0.02548828125t-0.61681640625,0.02548828125q-0.101953125,0.0101953125-0.23958984375,0.01529296875t-0.33134765625-0.00509765625q-0.3568359375-0.020390625-0.5199609375,0.101953125q-0.20390625,0.1529296875-0.183515625,0.550546875z M172.5699375,21.043125q0.3976171875,0,0.77484375-0.04078125t0.7340625-0.305859375q0.3772265625-0.28546875,0.305859375-0.672890625q-0.0815625-0.387421875-0.428203125-0.632109375q-0.0815625-0.061171875-0.18861328125-0.10705078125t-0.21919921875-0.08666015625q-0.5199609375-0.1121484375-0.9685546875-0.0509765625q-0.224296875,0.0305859375-0.4587890625,0.04587890625t-0.4791796875,0.00509765625q-0.12234375,0-0.2141015625-0.00509765625t-0.142734375-0.01529296875q-0.061171875-0.020390625-0.1121484375,0q-0.2548828125,0.061171875-0.2752734375,0.44859375q-0.0101953125,0.0815625-0.01529296875,0.2141015625t-0.00509765625,0.305859375q0.0101953125,0.0509765625,0.0101953125,0.12744140625l0,0.17841796875q0.020390625,0.3568359375,0.224296875,0.5199609375q0.1937109375,0.1733203125,0.672890625,0.1529296875q0.1733203125-0.0101953125,0.34154296875-0.0305859375t0.35173828125-0.0509765625l0.0917578125,0z  M188.348203125,24.5503125q0,0.2548828125-0.2141015625,0.32625q-0.183515625,0.0815625-0.32625-0.12234375q-0.0713671875-0.101953125-0.11724609375-0.183515625t-0.07646484375-0.1529296875q-0.142734375-0.305859375-0.2548828125-0.53525390625t-0.224296875-0.37212890625q-0.2446875-0.3364453125-0.5403515625-0.428203125q-0.2548828125-0.0815625-0.815625-0.020390625q-0.32625,0.04078125-0.61681640625,0.0509765625t-0.55564453125-0.0101953125q-0.591328125-0.04078125-0.876796875,0.3772265625l-0.020390625,0.0305859375l-0.0101953125,0.020390625q-0.101953125,0.20390625-0.16822265625,0.40271484375t-0.15802734375,0.38232421875l-0.2141015625,0.3364453125q-0.142734375,0.2141015625-0.2956640625,0.2344921875q-0.0713671875,0.0305859375-0.20390625-0.0815625q-0.061171875-0.061171875-0.07646484375-0.14783203125t0-0.17841796875t0.0509765625-0.18861328125t0.06626953125-0.16822265625l0.2446875-0.509765625q0.3568359375-0.7340625,0.66779296875-1.488515625t0.65759765625-1.5191015625q0.061171875-0.1325390625,0.10705078125-0.24978515625t0.09685546875-0.22939453125q0.1121484375-0.2752734375,0.224296875-0.55564453125t0.2548828125-0.55564453125l0.1529296875-0.2344921875q0.1121484375-0.183515625,0.2141015625-0.1937109375q0.101953125-0.020390625,0.265078125,0.1733203125q0.1733203125,0.20390625,0.33134765625,0.4791796875t0.27017578125,0.5199609375q0.3568359375,0.754453125,0.66779296875,1.51400390625t0.66779296875,1.49361328125q0.1121484375,0.224296875,0.21919921875,0.45369140625t0.22939453125,0.44349609375q0.061171875,0.1529296875,0.12744140625,0.2956640625t0.12744140625,0.28546875q0.0509765625,0.1121484375,0.0815625,0.183515625t0.04078125,0.12234375z M186.32953125,21.695625q-0.101953125-0.2446875-0.19880859375-0.50466796875t-0.22939453125-0.50466796875q-0.2446875-0.468984375-0.5403515625-0.44859375q-0.1121484375,0-0.19880859375,0.061171875t-0.14783203125,0.14783203125t-0.1121484375,0.18861328125t-0.0815625,0.1937109375q-0.1121484375,0.305859375-0.2141015625,0.632109375t-0.1937109375,0.632109375q-0.0713671875,0.224296875,0.020390625,0.3364453125q0.061171875,0.101953125,0.3160546875,0.12234375q0.224296875,0.0101953125,0.3976171875,0.01529296875t0.28546875-0.00509765625q0.224296875,0,0.591328125-0.061171875q0.3772265625-0.061171875,0.44859375-0.3364453125q0.0305859375-0.163125-0.04078125-0.2752734375q-0.020390625-0.04078125-0.05607421875-0.09685546875t-0.04587890625-0.09685546875z M192.128625,24.67265625q-0.04078125,0.183515625-0.3160546875,0.2141015625q-0.28546875-0.0101953125-0.28546875-0.3160546875q0-0.795234375-0.03568359375-1.60576171875t0.04587890625-1.60576171875l0-0.0101953125q0-0.2344921875,0.00509765625-0.4587890625t-0.01529296875-0.4383984375l-0.0815625-0.77484375q-0.0305859375-0.32625,0.101953125-0.7034765625q0.101953125-0.265078125,0.2752734375-0.3160546875q0.142734375-0.0305859375,0.2956640625,0.142734375q0.142734375,0.1529296875,0.2141015625,0.265078125q0.1325390625,0.1937109375,0.27017578125,0.346640625t0.27017578125,0.28546875q0.1121484375,0.1325390625,0.22939453125,0.22939453125t0.22939453125,0.21919921875q0.101953125,0.101953125,0.224296875,0.25998046875t0.265078125,0.37212890625l0.44859375,0.69328125q0.0509765625,0.0713671875,0.10705078125,0.163125t0.13763671875,0.2141015625l0.0101953125,0.0101953125q0.2141015625,0.28546875,0.44859375,0.5403515625q0.1121484375,0.12234375,0.224296875,0.22939453125t0.2344921875,0.21919921875q0.1121484375,0.1325390625,0.265078125,0.0815625q0.2344921875-0.061171875,0.224296875-0.468984375q0-0.101953125-0.01529296875-0.2141015625t-0.01529296875-0.224296875q-0.0101953125-0.0815625-0.020390625-0.15802734375t-0.0101953125-0.16822265625q0-0.04078125-0.00509765625-0.0917578125t-0.00509765625-0.1121484375q0.04078125-0.8971875-0.061171875-1.67203125q-0.0101953125-0.0509765625-0.0101953125-0.16822265625t0.020390625-0.30076171875q0.0101953125-0.224296875,0.061171875-0.4791796875q0.0305859375-0.36703125,0.32625-0.36703125q0.32625,0,0.32625,0.387421875q0.0101953125,0.3160546875,0.02548828125,0.63720703125t0.01529296875,0.63720703125q0.0101953125,0.468984375-0.020390625,0.93796875t-0.0101953125,0.93796875q0.020390625,0.3160546875,0.01529296875,0.6219140625t-0.01529296875,0.61171875q0,0.1733203125,0.00509765625,0.34154296875t0.00509765625,0.32115234375l0,0.4078125q-0.0101953125,0.061171875-0.01529296875,0.12234375t-0.00509765625,0.1121484375q-0.0101953125,0.0101953125-0.0101953125,0.020390625t-0.0101953125,0.0101953125q-0.1121484375,0.1529296875-0.346640625,0.1529296875q-0.2752734375,0.020390625-0.4180078125-0.1733203125q-0.1529296875-0.1937109375-0.28037109375-0.4180078125t-0.28037109375-0.4383984375q-0.183515625-0.2446875-0.40271484375-0.52505859375t-0.48427734375-0.59642578125q-0.101953125-0.1121484375-0.28546875-0.4078125l-0.3568359375-0.5709375q-0.1325390625-0.20390625-0.265078125-0.41291015625t-0.2752734375-0.40271484375q-0.061171875-0.0713671875-0.1325390625-0.15802734375t-0.1529296875-0.14783203125t-0.183515625-0.0917578125t-0.20390625,0q-0.2752734375,0.0815625-0.2548828125,0.5607421875q0.0101953125,0.346640625,0.01529296875,0.6525t0.02548828125,0.5709375q0.020390625,0.2141015625-0.00509765625,0.428203125t-0.02548828125,0.4180078125l0,0.795234375q0,0.2548828125-0.01529296875,0.4587890625t-0.03568359375,0.36703125z M204.350765625,19.1671875l0.0305859375,0.0305859375q0.1121484375,0.1325390625,0.20900390625,0.2956640625t0.17841796875,0.36703125q0.061171875,0.142734375,0.13763671875,0.27017578125t0.12744140625,0.27017578125q0.0815625,0.224296875,0.12234375,0.4078125t0.0509765625,0.346640625t0.00509765625,0.35173828125t-0.03568359375,0.42310546875q-0.020390625,0.20390625-0.020390625,0.40271484375t-0.04078125,0.40271484375q-0.0509765625,0.265078125-0.15802734375,0.52505859375t-0.24978515625,0.49447265625q-0.2548828125,0.4078125-0.713671875,0.7442578125l-0.0815625,0.04078125q-0.1121484375,0.0815625-0.1937109375,0.0917578125q-0.1121484375,0.0509765625-0.2141015625,0.08666015625t-0.1937109375,0.05607421875q-0.53015625,0.12234375-1.0908984375,0.10705078125t-1.0908984375-0.00509765625q-0.1937109375,0-0.468984375,0.00509765625t-0.4383984375-0.09685546875q-0.142734375-0.0713671875-0.183515625-0.2752734375q-0.0101953125-0.04078125-0.0101953125-0.1733203125q0-0.489375,0.0101953125-0.97365234375t0.0305859375-0.97365234375q0.020390625-0.2446875-0.0101953125-0.50466796875t-0.0305859375-0.51486328125l0-1.0603125l0-0.85640625q0-0.61171875,0.1529296875-0.795234375q0.163125-0.1733203125,0.4995703125-0.163125q0.1733203125,0.0101953125,0.32115234375,0.00509765625t0.25998046875-0.00509765625q0.387421875-0.0101953125,0.79013671875,0.0101953125t0.83091796875,0.04078125q0.836015625,0.0509765625,1.468125,0.61171875l0,0.0101953125z M203.0151796875,19.1977734375l-0.0101953125,0q-0.142734375-0.020390625-0.35173828125-0.020390625t-0.48427734375,0.020390625q-0.4995703125,0.0305859375-0.77484375-0.0101953125q-0.44859375-0.0713671875-0.550546875,0q-0.1529296875,0.1121484375-0.1529296875,0.4383984375t0.0101953125,0.6423046875t-0.0101953125,0.6219140625q-0.0509765625,0.7646484375-0.03568359375,1.51400390625t0.01529296875,1.49361328125q0,0.1733203125,0.12234375,0.2752734375q0.12234375,0.1121484375,0.4791796875,0.061171875q0.0101953125,0,0.02548828125-0.00509765625t0.02548828125-0.00509765625q0.20390625-0.0101953125,0.38232421875-0.00509765625t0.34154296875,0.01529296875q0.61171875,0.04078125,1.1724609375-0.061171875q0.5709375-0.12234375,0.8869921875-0.7442578125q0.142734375-0.2752734375,0.24978515625-0.53015625t0.16822265625-0.51486328125t0.07646484375-0.53525390625t-0.01529296875-0.6015234375q-0.061171875-0.632109375-0.4078125-1.2540234375q-0.1733203125-0.2956640625-0.46388671875-0.489375t-0.68818359375-0.2956640625z  M215.378015625,20.8698046875q0.36703125,0.0101953125,0.7340625,0.02548828125t0.7340625,0.06626953125q0.28546875,0.04078125,0.4383984375-0.12234375q0.1121484375-0.12234375,0.10705078125-0.305859375t-0.00509765625-0.346640625q0.0101953125-0.2548828125,0.0101953125-0.44349609375l0-0.31095703125q0-0.061171875,0.00509765625-0.163125t0.0101953125-0.20900390625t0.020390625-0.20900390625t0.04587890625-0.163125q0.0917578125-0.2141015625,0.3364453125-0.1937109375q0.265078125,0.0305859375,0.265078125,0.4587890625q-0.0101953125,0.2548828125-0.0305859375,0.509765625t0,0.4995703125l0,0.0101953125q0,0.4078125,0.020390625,0.815625t0.04078125,0.8054296875q0.020390625,0.2446875,0,0.49447265625t-0.020390625,0.49447265625q-0.0101953125,0.428203125-0.0101953125,0.85130859375l0,0.85130859375q0,0.3772265625-0.0713671875,0.489375q-0.04078125,0.0713671875-0.163125,0.101953125q-0.36703125,0.0917578125-0.4180078125-0.32625q-0.0509765625-0.5199609375-0.03568359375-1.0501171875t-0.00509765625-1.0603125q-0.0101953125-0.1937109375-0.04587890625-0.428203125t-0.19880859375-0.3772265625q-0.1529296875-0.12234375-0.53015625-0.12234375q-0.183515625,0-0.36193359375,0.0101953125t-0.36193359375,0l-0.5811328125,0q-0.183515625,0.0101953125-0.36193359375-0.00509765625t-0.36193359375-0.02548828125q-0.387421875-0.0305859375-0.5811328125,0.101953125q-0.2344921875,0.20390625-0.2344921875,0.6830859375q0,0.3160546875,0.0101953125,0.63720703125t0.0101953125,0.62701171875q0,0.2548828125-0.0101953125,0.44349609375t-0.0101953125,0.32115234375q-0.0101953125,0.142734375-0.020390625,0.2446875t-0.0305859375,0.1733203125q-0.1121484375,0.2141015625-0.3568359375,0.1529296875q-0.2446875-0.04078125-0.2446875-0.3772265625l0-0.6626953125t0.0101953125-0.6626953125q0.0101953125-0.3160546875,0-0.63720703125t-0.0101953125-0.64740234375q0-0.5199609375,0.0101953125-1.039921875l0.020390625-1.039921875q0-0.0815625-0.0101953125-0.224296875t-0.020390625-0.3568359375q-0.020390625-0.4383984375,0.0305859375-0.550546875q0.1325390625-0.1937109375,0.305859375-0.183515625q0.305859375,0.0101953125,0.3364453125,0.4791796875q0.0101953125,0.12234375,0.01529296875,0.2141015625t0.00509765625,0.163125l0,0.142734375t-0.020390625,0.2141015625l-0.04078125,0.305859375t-0.020390625,0.2956640625q-0.020390625,0.32625,0.12234375,0.44859375q0.1529296875,0.1121484375,0.4078125,0.0713671875q0.142734375-0.0101953125,0.2446875-0.0101953125l0.1733203125,0q0.1733203125,0.0101953125,0.346640625,0.0305859375t0.3568359375,0.020390625z M221.584921875,24.2750390625q-0.0101953125-0.6219140625-0.00509765625-1.243828125t0.00509765625-1.243828125l0-0.3568359375q0-0.2752734375-0.01529296875-0.55564453125t0.00509765625-0.55564453125q0.0101953125-0.305859375,0.0101953125-0.60662109375t0.0101953125-0.60662109375q0-0.36703125,0.1733203125-0.509765625q0.1325390625-0.101953125,0.468984375-0.101953125q0.1733203125-0.0101953125,0.30076171875-0.01529296875t0.21919921875-0.00509765625q0.3976171875-0.0101953125,0.795234375,0.00509765625t0.795234375,0.00509765625q0.2141015625-0.0101953125,0.428203125-0.01529296875t0.4180078125,0.01529296875l0.5199609375,0.0305859375q0.0917578125,0.0101953125,0.15802734375,0.0101953125t0.11724609375,0.020390625q0.2141015625,0.1121484375,0.20390625,0.3160546875q-0.0101953125,0.0917578125-0.0713671875,0.14783203125t-0.13763671875,0.08666015625t-0.15802734375,0.04078125t-0.142734375,0.0101953125q-0.6219140625,0-1.2336328125-0.0305859375q-0.061171875-0.0101953125-0.1529296875-0.0101953125l-0.20390625,0l-0.591328125,0q-0.2344921875,0-0.4180078125,0.00509765625t-0.305859375,0.00509765625q-0.1733203125,0.0101953125-0.28546875,0.04587890625t-0.163125,0.11724609375q-0.0815625,0.12234375-0.061171875,0.305859375l0,0.142734375t-0.0101953125,0.1121484375q-0.020390625,0.12234375-0.0305859375,0.25998046875t0,0.30076171875q0,0.28546875,0.224296875,0.4791796875q0.183515625,0.163125,0.6626953125,0.1325390625q0.2141015625-0.0101953125,0.42310546875-0.03568359375t0.42310546875-0.01529296875q0.0917578125,0,0.23958984375,0.00509765625t0.35173828125-0.00509765625q0.4078125-0.0101953125,0.550546875,0.142734375q0.0509765625,0.0713671875,0.04078125,0.2344921875q-0.0305859375,0.183515625-0.28546875,0.224296875q-0.2344921875,0.04078125-0.3772265625,0.04078125q-0.183515625,0.0101953125-0.36193359375,0.00509765625t-0.36193359375,0.00509765625q-0.224296875,0.020390625-0.4587890625,0.0101953125t-0.489375-0.0305859375q-0.0305859375,0-0.0713671875-0.00509765625t-0.0713671875-0.00509765625l-0.0101953125,0q-0.1121484375-0.020390625-0.224296875,0.0509765625q-0.183515625,0.1121484375-0.20390625,0.387421875q-0.020390625,0.265078125,0,0.4587890625q0.0101953125,0.1121484375,0.01529296875,0.20390625t-0.00509765625,0.163125q-0.020390625,0.1529296875-0.03568359375,0.30076171875t-0.03568359375,0.30076171875q-0.0305859375,0.387421875,0.101953125,0.5811328125q0.1733203125,0.2344921875,0.6015234375,0.2344921875q0.3364453125,0,0.6830859375-0.01529296875t0.69328125-0.03568359375q0.3160546875-0.0101953125,0.64740234375,0.020390625t0.65759765625,0.0305859375q0.12234375,0,0.32625-0.00509765625t0.3160546875,0.05607421875q0.101953125,0.061171875,0.1121484375,0.183515625q0.1121484375,0.36703125-0.3160546875,0.387421875q-0.672890625,0.0305859375-1.32029296875,0.020390625t-1.29990234375,0q-0.04078125,0-0.07646484375,0.00509765625t-0.06626953125,0.00509765625l-0.40271484375,0t-0.28037109375-0.0101953125q-0.0713671875,0-0.16822265625-0.00509765625t-0.21919921875-0.01529296875q-0.101953125-0.0101953125-0.16822265625-0.020390625t-0.09685546875-0.020390625q-0.305859375-0.0917578125-0.305859375-0.5709375z M233.297296875,18.88171875q0.2141015625,0.2141015625,0.34154296875,0.468984375l0.25998046875,0.5199609375q0.142734375,0.2956640625,0.08666015625,0.59642578125t-0.33134765625,0.58623046875q-0.2141015625,0.224296875-0.713671875,0.3568359375q-0.183515625,0.0509765625-0.39251953125,0.10705078125t-0.29056640625,0.23958984375q-0.061171875,0.1733203125,0.0305859375,0.3568359375q0.101953125,0.1937109375,0.163125,0.3160546875t0.101953125,0.183515625q0.0509765625,0.101953125,0.1325390625,0.22939453125t0.1937109375,0.29056640625q0.2344921875,0.32625,0.49447265625,0.61171875t0.52505859375,0.550546875l0.0509765625,0.0509765625q0.224296875,0.224296875,0.0101953125,0.4383984375q-0.2344921875,0.2344921875-0.44859375,0.0101953125l-0.305859375-0.305859375t-0.2446875-0.265078125q-0.2446875-0.305859375-0.4587890625-0.6423046875q-0.1529296875-0.224296875-0.31095703125-0.43330078125t-0.30076171875-0.45369140625q-0.4078125-0.7340625-1.0093359375-0.9685546875q-0.6423046875-0.2344921875-0.93796875,0.183515625q-0.0917578125,0.142734375-0.0917578125,0.3160546875l0,2.2123828125l0,0.1325390625q0,0.305859375-0.3160546875,0.3160546875q-0.3160546875-0.0101953125-0.3160546875-0.387421875q0-0.2344921875,0.01529296875-0.48427734375t0.02548828125-0.53525390625q0.0101953125-0.1937109375-0.00509765625-0.3976171875t-0.01529296875-0.3976171875t0.0101953125-0.387421875t0.0101953125-0.387421875q0.0101953125-0.4587890625-0.0305859375-0.9481640625q0-0.3364453125,0.01529296875-0.6830859375t0.00509765625-0.7034765625q-0.0101953125-0.183515625-0.0101953125-0.41291015625t0.061171875-0.41291015625q0.183515625-0.2446875,0.8666015625-0.2446875l0.3160546875,0q0.36703125,0,0.73916015625,0.0305859375t0.73916015625,0.0101953125q0.8462109375-0.04078125,1.3355859375,0.3364453125z M230.4324140625,21.08390625q0.387421875,0.0101953125,0.6830859375,0.0101953125t0.4995703125-0.020390625q0.1937109375-0.020390625,0.43330078125-0.0509765625t0.52505859375-0.0815625q0.5811328125-0.12234375,0.754453125-0.5403515625q0.0713671875-0.1529296875,0.0509765625-0.3364453125t-0.11724609375-0.3364453125t-0.2446875-0.25998046875t-0.32115234375-0.183515625t-0.3364453125-0.10705078125q-0.428203125-0.0815625-0.85130859375-0.06626953125t-0.85130859375-0.00509765625q-0.0815625,0-0.15802734375-0.00509765625t-0.15802734375-0.00509765625q-0.2141015625-0.0101953125-0.32625,0.1121484375q-0.0917578125,0.101953125-0.0713671875,0.28546875q0.0101953125,0.0509765625,0.0101953125,0.2141015625q-0.0101953125,0.1529296875-0.03568359375,0.2956640625t-0.03568359375,0.28546875q-0.061171875,0.3976171875,0.0917578125,0.591328125q0.1325390625,0.183515625,0.4587890625,0.20390625z M237.6894375,24.8867578125q-0.32625-0.0509765625-0.32625-0.387421875q-0.0101953125-0.550546875-0.0101953125-1.080703125l0-1.080703125q0-0.305859375,0.0305859375-0.61171875q0.020390625-0.224296875,0.020390625-0.4180078125t-0.0101953125-0.3568359375q-0.0101953125-0.101953125-0.020390625-0.2446875t-0.020390625-0.3364453125q0-0.101953125,0.00509765625-0.2446875t0.01529296875-0.3364453125q0.0101953125-0.142734375,0.01529296875-0.24978515625t0.00509765625-0.18861328125l0-0.224296875l0-0.0101953125l0-0.0815625q-0.0305859375-0.2548828125,0.0101953125-0.3568359375q0.0305859375-0.0713671875,0.1325390625-0.142734375q0.3976171875-0.20390625,0.489375,0.2548828125q0.0815625,0.346640625,0.09685546875,0.67798828125t-0.01529296875,0.65759765625l0,0.0101953125q-0.0305859375,0.3160546875-0.01529296875,0.632109375t-0.01529296875,0.632109375q-0.0305859375,0.2752734375-0.0509765625,0.4791796875t-0.0305859375,0.346640625q-0.020390625,0.20390625-0.020390625,0.42310546875t0.0101953125,0.46388671875q0.0101953125,0.0509765625,0.0101953125,0.11724609375l0,0.15802734375l0,0.32625t0.0101953125,0.3160546875q0,0.1121484375,0.00509765625,0.20900390625t-0.00509765625,0.19880859375q0,0.20390625-0.0101953125,0.224296875q-0.04078125,0.1937109375-0.305859375,0.224296875z M246.4145859375,18.9938671875q-0.142734375,0.163125-0.468984375,0.142734375l-0.509765625-0.0305859375q-0.1529296875-0.0101953125-0.2956640625-0.020390625t-0.2956640625-0.0101953125q-0.305859375-0.0101953125-0.44859375,0.1325390625q-0.1121484375,0.1325390625-0.1121484375,0.4383984375q0,0.142734375,0.01529296875,0.28037109375t0.01529296875,0.28037109375q0.0101953125,0.3364453125,0.01529296875,0.58623046875t0.00509765625,0.42310546875q0,0.5199609375-0.061171875,1.039921875q-0.0305859375,0.2446875,0,0.489375t0.04078125,0.4791796875q0.0101953125,0.265078125,0.01529296875,0.4587890625t0.00509765625,0.32625l0,0.13763671875t-0.0101953125,0.21919921875q-0.020390625,0.2752734375-0.04078125,0.3364453125q-0.1325390625,0.224296875-0.346640625,0.163125q-0.265078125-0.0509765625-0.265078125-0.387421875q-0.0101953125-0.305859375,0.01529296875-0.61681640625t0.04587890625-0.61681640625q0.0305859375-0.3568359375-0.00509765625-0.7238671875t-0.03568359375-0.7340625q0-0.3364453125,0.02548828125-0.67798828125t0.03568359375-0.67798828125q0-0.6626953125-0.2141015625-0.93796875q-0.1121484375-0.142734375-0.27017578125-0.21919921875t-0.35173828125-0.09685546875t-0.36193359375-0.03568359375t-0.33134765625-0.01529296875l-0.31095703125,0t-0.29056640625-0.061171875q-0.0815625-0.04078125-0.101953125-0.1937109375q-0.020390625-0.1121484375,0.0305859375-0.1937109375q0.0713671875-0.12234375,0.3568359375-0.1529296875q0.0305859375-0.0101953125,0.1121484375-0.0101953125q0.428203125-0.0101953125,0.83091796875,0.03568359375t0.83091796875,0.01529296875q0.1733203125-0.0101953125,0.34154296875-0.0305859375t0.35173828125-0.020390625l0.67798828125,0t0.67798828125-0.0101953125q0.1733203125,0,0.30076171875,0.0101953125t0.21919921875,0.0509765625q0.3160546875,0.2141015625,0.163125,0.428203125z M255.4150078125,24.5503125q0,0.2548828125-0.2141015625,0.32625q-0.183515625,0.0815625-0.32625-0.12234375q-0.0713671875-0.101953125-0.11724609375-0.183515625t-0.07646484375-0.1529296875q-0.142734375-0.305859375-0.2548828125-0.53525390625t-0.224296875-0.37212890625q-0.2446875-0.3364453125-0.5403515625-0.428203125q-0.2548828125-0.0815625-0.815625-0.020390625q-0.32625,0.04078125-0.61681640625,0.0509765625t-0.55564453125-0.0101953125q-0.591328125-0.04078125-0.876796875,0.3772265625l-0.020390625,0.0305859375l-0.0101953125,0.020390625q-0.101953125,0.20390625-0.16822265625,0.40271484375t-0.15802734375,0.38232421875l-0.2141015625,0.3364453125q-0.142734375,0.2141015625-0.2956640625,0.2344921875q-0.0713671875,0.0305859375-0.20390625-0.0815625q-0.061171875-0.061171875-0.07646484375-0.14783203125t0-0.17841796875t0.0509765625-0.18861328125t0.06626953125-0.16822265625l0.2446875-0.509765625q0.3568359375-0.7340625,0.66779296875-1.488515625t0.65759765625-1.5191015625q0.061171875-0.1325390625,0.10705078125-0.24978515625t0.09685546875-0.22939453125q0.1121484375-0.2752734375,0.224296875-0.55564453125t0.2548828125-0.55564453125l0.1529296875-0.2344921875q0.1121484375-0.183515625,0.2141015625-0.1937109375q0.101953125-0.020390625,0.265078125,0.1733203125q0.1733203125,0.20390625,0.33134765625,0.4791796875t0.27017578125,0.5199609375q0.3568359375,0.754453125,0.66779296875,1.51400390625t0.66779296875,1.49361328125q0.1121484375,0.224296875,0.21919921875,0.45369140625t0.22939453125,0.44349609375q0.061171875,0.1529296875,0.12744140625,0.2956640625t0.12744140625,0.28546875q0.0509765625,0.1121484375,0.0815625,0.183515625t0.04078125,0.12234375z M253.3963359375,21.695625q-0.101953125-0.2446875-0.19880859375-0.50466796875t-0.22939453125-0.50466796875q-0.2446875-0.468984375-0.5403515625-0.44859375q-0.1121484375,0-0.19880859375,0.061171875t-0.14783203125,0.14783203125t-0.1121484375,0.18861328125t-0.0815625,0.1937109375q-0.1121484375,0.305859375-0.2141015625,0.632109375t-0.1937109375,0.632109375q-0.0713671875,0.224296875,0.020390625,0.3364453125q0.061171875,0.101953125,0.3160546875,0.12234375q0.224296875,0.0101953125,0.3976171875,0.01529296875t0.28546875-0.00509765625q0.224296875,0,0.591328125-0.061171875q0.3772265625-0.061171875,0.44859375-0.3364453125q0.0305859375-0.163125-0.04078125-0.2752734375q-0.020390625-0.04078125-0.05607421875-0.09685546875t-0.04587890625-0.09685546875z M263.97703125,24.2342578125q-0.754453125,0.672890625-1.814765625,0.7238671875q-1.0297265625,0.04078125-1.9473046875-0.32625l-0.0101953125-0.0101953125l-0.020390625,0q-0.1529296875-0.0509765625-0.4383984375-0.28546875q-0.2752734375-0.2446875-0.36703125-0.36703125q-0.1529296875-0.20390625-0.27017578125-0.4587890625t-0.23958984375-0.489375q-0.224296875-0.4383984375-0.2446875-0.7442578125q-0.0101953125-0.1529296875-0.00509765625-0.35173828125t0.02548828125-0.45369140625q0.0917578125-1.121484375,0.7034765625-2.0696484375q0.0509765625-0.0815625,0.1937109375-0.19880859375t0.36703125-0.23958984375q0.468984375-0.2548828125,0.795234375-0.3568359375q0.2141015625-0.0713671875,0.4791796875-0.101953125q0.61171875-0.0713671875,1.2540234375,0.00509765625t1.1928515625,0.39251953125q0.0815625,0.0509765625,0.17841796875,0.12234375t0.22939453125,0.1733203125q0.2548828125,0.1937109375,0.28546875,0.387421875q0.0101953125,0.0917578125-0.061171875,0.183515625q-0.1121484375,0.142734375-0.2141015625,0.142734375q-0.12234375,0-0.265078125-0.09685546875t-0.224296875-0.15802734375q-0.1733203125-0.1121484375-0.28037109375-0.183515625t-0.12744140625-0.0917578125q-0.5199609375-0.2752734375-1.26421875-0.2752734375q-0.1733203125,0-0.3772265625,0.01529296875t-0.4383984375,0.05607421875l-0.020390625,0l-0.020390625,0.0101953125q-1.2948046875,0.36703125-1.6822265625,1.7637890625q-0.1325390625,0.4995703125-0.05607421875,0.9481640625t0.19880859375,0.917578125q0.1937109375,0.713671875,0.6423046875,1.0297265625t1.1316796875,0.4383984375l0.0101953125,0q0.183515625,0.0305859375,0.34154296875,0.0305859375t0.31095703125-0.02548828125t0.31095703125-0.05607421875t0.34154296875-0.0509765625q0.7238671875-0.0917578125,1.0297265625-0.5199609375l0-0.0101953125q0.224296875-0.346640625,0.183515625-0.9685546875q-0.0101953125-0.32625-0.2344921875-0.53015625q-0.2752734375-0.2548828125-0.7646484375-0.2344921875l-0.815625,0.0305859375q-0.1325390625,0.0101953125-0.2344921875,0.01529296875t-0.183515625,0.00509765625q-0.387421875-0.0509765625-0.3364453125-0.346640625q0.0305859375-0.20390625,0.28546875-0.265078125q0.4587890625-0.04078125,0.90228515625-0.0101953125t0.91248046875,0l0.4383984375-0.0305859375q0.2956640625-0.020390625,0.4383984375,0.101953125q0.163125,0.12234375,0.1733203125,0.428203125q0.0305859375,0.305859375,0.0305859375,0.468984375q0,0.2752734375,0.0101953125,0.57603515625t-0.04078125,0.56583984375q-0.0713671875,0.387421875-0.3976171875,0.77484375z M267.69628125,24.2750390625q-0.0101953125-0.6219140625-0.00509765625-1.243828125t0.00509765625-1.243828125l0-0.3568359375q0-0.2752734375-0.01529296875-0.55564453125t0.00509765625-0.55564453125q0.0101953125-0.305859375,0.0101953125-0.60662109375t0.0101953125-0.60662109375q0-0.36703125,0.1733203125-0.509765625q0.1325390625-0.101953125,0.468984375-0.101953125q0.1733203125-0.0101953125,0.30076171875-0.01529296875t0.21919921875-0.00509765625q0.3976171875-0.0101953125,0.795234375,0.00509765625t0.795234375,0.00509765625q0.2141015625-0.0101953125,0.428203125-0.01529296875t0.4180078125,0.01529296875l0.5199609375,0.0305859375q0.0917578125,0.0101953125,0.15802734375,0.0101953125t0.11724609375,0.020390625q0.2141015625,0.1121484375,0.20390625,0.3160546875q-0.0101953125,0.0917578125-0.0713671875,0.14783203125t-0.13763671875,0.08666015625t-0.15802734375,0.04078125t-0.142734375,0.0101953125q-0.6219140625,0-1.2336328125-0.0305859375q-0.061171875-0.0101953125-0.1529296875-0.0101953125l-0.20390625,0l-0.591328125,0q-0.2344921875,0-0.4180078125,0.00509765625t-0.305859375,0.00509765625q-0.1733203125,0.0101953125-0.28546875,0.04587890625t-0.163125,0.11724609375q-0.0815625,0.12234375-0.061171875,0.305859375l0,0.142734375t-0.0101953125,0.1121484375q-0.020390625,0.12234375-0.0305859375,0.25998046875t0,0.30076171875q0,0.28546875,0.224296875,0.4791796875q0.183515625,0.163125,0.6626953125,0.1325390625q0.2141015625-0.0101953125,0.42310546875-0.03568359375t0.42310546875-0.01529296875q0.0917578125,0,0.23958984375,0.00509765625t0.35173828125-0.00509765625q0.4078125-0.0101953125,0.550546875,0.142734375q0.0509765625,0.0713671875,0.04078125,0.2344921875q-0.0305859375,0.183515625-0.28546875,0.224296875q-0.2344921875,0.04078125-0.3772265625,0.04078125q-0.183515625,0.0101953125-0.36193359375,0.00509765625t-0.36193359375,0.00509765625q-0.224296875,0.020390625-0.4587890625,0.0101953125t-0.489375-0.0305859375q-0.0305859375,0-0.0713671875-0.00509765625t-0.0713671875-0.00509765625l-0.0101953125,0q-0.1121484375-0.020390625-0.224296875,0.0509765625q-0.183515625,0.1121484375-0.20390625,0.387421875q-0.020390625,0.265078125,0,0.4587890625q0.0101953125,0.1121484375,0.01529296875,0.20390625t-0.00509765625,0.163125q-0.020390625,0.1529296875-0.03568359375,0.30076171875t-0.03568359375,0.30076171875q-0.0305859375,0.387421875,0.101953125,0.5811328125q0.1733203125,0.2344921875,0.6015234375,0.2344921875q0.3364453125,0,0.6830859375-0.01529296875t0.69328125-0.03568359375q0.3160546875-0.0101953125,0.64740234375,0.020390625t0.65759765625,0.0305859375q0.12234375,0,0.32625-0.00509765625t0.3160546875,0.05607421875q0.101953125,0.061171875,0.1121484375,0.183515625q0.1121484375,0.36703125-0.3160546875,0.387421875q-0.672890625,0.0305859375-1.32029296875,0.020390625t-1.29990234375,0q-0.04078125,0-0.07646484375,0.00509765625t-0.06626953125,0.00509765625l-0.40271484375,0t-0.28037109375-0.0101953125q-0.0713671875,0-0.16822265625-0.00509765625t-0.21919921875-0.01529296875q-0.101953125-0.0101953125-0.16822265625-0.020390625t-0.09685546875-0.020390625q-0.305859375-0.0917578125-0.305859375-0.5709375z"></path></svg>
</defs><use id="SvgjsUse1034" xlink:href="#t1493141643639" fill="#222222" x="22.236814498901367" y="159.984787940979"></use><use id="SvgjsUse1035" xlink:href="#s1493141643639" fill="#222222" y="174.91957569122314" x="43.781485453248024"></use><use id="SvgjsUse1036" xlink:href="#a1493141643639" fill="#222222" x="133" y="69.69482707977295"></use></svg>