<svg xmlns="http://www.w3.org/2000/svg" viewBox="0 0 85.27 85.27"><defs><style>.cls-1{fill:#7d8a2e;}</style></defs><title>logo_symbol_green</title><g id="Layer_2" data-name="Layer 2"><g id="a1493141644346"><g id="SvgjsUse1041"><path class="cls-1" d="M42.63,0A42.64,42.64,0,1,0,85.27,42.63,42.68,42.68,0,0,0,42.63,0Zm0,3.7A39,39,0,0,1,81.52,40.83L70.44,29.76l-6,6L43.29,12.85l-21,22.58-5.77-5.77L3.7,42.51A39,39,0,0,1,42.63,3.7ZM61.86,38.34,43.54,56.65l-18.6-18.6L43.29,18.29ZM4,47.44,16.55,34.9,40.92,59.27,23.61,76.58A39,39,0,0,1,4,47.44ZM42.63,81.56A38.88,38.88,0,0,1,27.1,78.33L70.44,35l11,11A39,39,0,0,1,42.63,81.56Z"/></g></g></g></svg>